<?xml version="1.0" encoding="UTF-8" standalone="no"?>
<svg
   width="200"
   height="200"
   viewBox="0 0 52.916665 52.916667"
   version="1.1"
   id="svg3625"
   inkscape:version="1.3.2 (1:1.3.2+202311252150+091e20ef0f)"
   sodipodi:docname="copy.svg"
   xml:space="preserve"
   inkscape:export-filename="Paste.png"
   inkscape:export-xdpi="240"
   inkscape:export-ydpi="240"
   xmlns:inkscape="http://www.inkscape.org/namespaces/inkscape"
   xmlns:sodipodi="http://sodipodi.sourceforge.net/DTD/sodipodi-0.dtd"
   xmlns="http://www.w3.org/2000/svg"
   xmlns:svg="http://www.w3.org/2000/svg"
   xmlns:rdf="http://www.w3.org/1999/02/22-rdf-syntax-ns#"
   xmlns:cc="http://creativecommons.org/ns#"
   xmlns:dc="http://purl.org/dc/elements/1.1/"><title
   id="title3">Copy</title><defs
   id="defs3620"><inkscape:path-effect
     effect="fillet_chamfer"
     id="path-effect62"
     is_visible="true"
     lpeversion="1"
     nodesatellites_param="F,0,0,1,0,0,0,1 @ F,0,0,1,0,0,0,1 @ F,0,0,1,0,0,0,1 @ F,0,0,1,0,0,0,1 @ F,0,0,1,0,0,0,1 @ F,0,0,1,0,0,0,1 @ F,0,0,1,0,0,0,1 @ F,0,0,1,0,0,0,1 @ F,0,0,1,0,0,0,1 @ F,0,0,1,0,0,0,1 @ F,0,0,1,0,0,0,1 @ F,0,0,1,0,0,0,1 @ F,0,0,1,0,0,0,1 @ F,0,0,1,0,10.231259,0,1 @ F,0,0,1,0,0,0,1 @ F,0,0,1,0,0,0,1 @ F,0,0,1,0,0,0,1 @ F,0,0,1,0,10.133811,0,1 @ F,0,0,1,0,0,0,1 @ F,0,0,1,0,0,0,1 @ F,0,0,1,0,0,0,1 @ F,0,0,1,0,0,0,1 @ F,0,0,1,0,0,0,1 @ F,0,0,1,0,0,0,1 @ F,0,0,1,0,0,0,1 @ F,0,0,1,0,0,0,1 @ F,0,0,1,0,0,0,1 @ F,0,0,1,0,0,0,1 @ F,0,0,1,0,0,0,1 | F,0,0,1,0,0,0,1 @ F,0,0,1,0,0,0,1 @ F,0,0,1,0,0,0,1 @ F,0,0,1,0,0,0,1 @ F,0,0,1,0,0,0,1 @ F,0,0,1,0,0,0,1 @ F,0,0,1,0,0,0,1 @ F,0,0,1,0,0,0,1 @ F,0,0,1,0,0,0,1 @ F,0,0,1,0,0,0,1 @ F,0,0,1,0,0,0,1 @ F,0,0,1,0,0,0,1 @ F,0,0,1,0,0,0,1 @ F,0,0,1,0,0,0,1 @ F,0,0,1,0,0,0,1 | F,0,0,1,0,0,0,1 @ F,0,0,1,0,0,0,1 @ F,0,0,1,0,0,0,1 @ F,0,0,1,0,0,0,1 @ F,0,0,1,0,0,0,1 @ F,0,0,1,0,0,0,1 @ F,0,0,1,0,0,0,1 @ F,0,0,1,0,0,0,1 @ F,0,0,1,0,0,0,1 @ F,0,0,1,0,0,0,1 @ F,0,0,1,0,0,0,1 @ F,0,0,1,0,0,0,1 @ F,0,0,1,0,0,0,1 @ F,0,0,1,0,0,0,1 @ F,0,0,1,0,0,0,1"
     radius="0"
     unit="px"
     method="auto"
     mode="F"
     chamfer_steps="1"
     flexible="false"
     use_knot_distance="true"
     apply_no_radius="true"
     apply_with_radius="true"
     only_selected="false"
     hide_knots="false" /><inkscape:path-effect
     effect="powerclip"
     id="path-effect55"
     is_visible="true"
     lpeversion="1"
     inverse="true"
     flatten="false"
     hide_clip="false"
     message="Use fill-rule evenodd on &lt;b&gt;fill and stroke&lt;/b&gt; dialog if no flatten result after convert clip to paths." /><inkscape:path-effect
     effect="powerclip"
     id="path-effect54"
     is_visible="true"
     lpeversion="1"
     inverse="true"
     flatten="false"
     hide_clip="false"
     message="Use fill-rule evenodd on &lt;b&gt;fill and stroke&lt;/b&gt; dialog if no flatten result after convert clip to paths." /><inkscape:path-effect
     effect="powerclip"
     id="path-effect44"
     is_visible="true"
     lpeversion="1"
     inverse="true"
     flatten="false"
     hide_clip="false"
     message="Use fill-rule evenodd on &lt;b&gt;fill and stroke&lt;/b&gt; dialog if no flatten result after convert clip to paths." /><clipPath
     clipPathUnits="userSpaceOnUse"
     id="clipPath43"><path
       id="lpe_path-effect44"
       style="display:inline;fill:none;fill-opacity:1;stroke:#000000;stroke-width:16;stroke-dasharray:none;stroke-opacity:1"
       class="powerclip"
       d="M 17.104425,54.547073 H 185.91561 V 274.14746 H 17.104425 Z m 41.20871,-13.458339 c -0.969708,0 -1.750376,0.780667 -1.750376,1.750375 V 232.93875 c 0,0.9697 0.780668,1.75037 1.750376,1.75037 H 197.62359 c 0.9697,0 1.75037,-0.78067 1.75037,-1.75037 V 42.839109 c 0,-0.969708 -0.78067,-1.750375 -1.75037,-1.750375 z" /></clipPath><clipPath
     clipPathUnits="userSpaceOnUse"
     id="clipPath47"><rect
       style="display:inline;fill:none;fill-opacity:1;stroke:#000000;stroke-width:16;stroke-dasharray:none;stroke-opacity:1"
       id="rect47"
       width="142.8112"
       height="193.60039"
       x="54.478924"
       y="84.758965"
       ry="1.7503754"
       clip-path="none" /></clipPath><clipPath
     clipPathUnits="userSpaceOnUse"
     id="clipPath55"><path
       id="lpe_path-effect55"
       style="display:block;fill:none;fill-opacity:1;stroke:#000000;stroke-width:0.919292;stroke-dasharray:none;stroke-opacity:1"
       class="powerclip"
       d="M 86.374512,35.248457 H 255.18705 V 254.84806 H 86.374512 Z M 214.88644,32.613373 v 41.886776 h 45.61213 V 32.613373 Z" /></clipPath></defs><sodipodi:namedview
   id="base"
   pagecolor="#ffffff"
   bordercolor="#666666"
   borderopacity="1.0"
   inkscape:pageopacity="0.0"
   inkscape:pageshadow="2"
   inkscape:zoom="2.7188256"
   inkscape:cx="99.859293"
   inkscape:cy="99.859293"
   inkscape:document-units="mm"
   inkscape:document-rotation="0"
   showgrid="false"
   units="px"
   inkscape:window-width="1920"
   inkscape:window-height="1008"
   inkscape:window-x="0"
   inkscape:window-y="0"
   inkscape:window-maximized="1"
   inkscape:current-layer="g70"
   showborder="true"
   borderlayer="false"
   inkscape:showpageshadow="true"
   inkscape:pagecheckerboard="0"
   inkscape:deskcolor="#d1d1d1" /><metadata
   id="metadata3623"><rdf:RDF><cc:Work
       rdf:about=""><dc:format>image/svg+xml</dc:format><dc:type
         rdf:resource="http://purl.org/dc/dcmitype/StillImage" /><dc:date>10-10-2024</dc:date><dc:creator><cc:Agent><dc:title>Rachid Tagzen</dc:title></cc:Agent></dc:creator><cc:license
         rdf:resource="http://creativecommons.org/licenses/by/4.0/" /><dc:title>Copy</dc:title><dc:subject><rdf:Bag><rdf:li>Copy</rdf:li></rdf:Bag></dc:subject></cc:Work><cc:License
       rdf:about="http://creativecommons.org/licenses/by/4.0/"><cc:permits
         rdf:resource="http://creativecommons.org/ns#Reproduction" /><cc:permits
         rdf:resource="http://creativecommons.org/ns#Distribution" /><cc:requires
         rdf:resource="http://creativecommons.org/ns#Notice" /><cc:requires
         rdf:resource="http://creativecommons.org/ns#Attribution" /><cc:permits
         rdf:resource="http://creativecommons.org/ns#DerivativeWorks" /></cc:License></rdf:RDF></metadata>   

<!-- Background rectangles representing two stacked papers --><!-- Horizontal lines representing text on the paper --><!-- Background papers --><!-- Lines representing text --><!-- Base document --><!-- Overlapping document --><!-- Lines representing text --><g
   id="g55"><g
     id="g56"
     transform="translate(-128.28283,118.25139)"><g
       id="g70"
       transform="matrix(1.3678717,0,0,1.2558183,-102.95392,-19.501088)"><path
         style="fill:#d0d0d0"
         d="m 236.92995,165.88077 c 19.22808,-0.0147 50.66058,-0.0147 69.85,0 19.18941,0.0147 3.45734,0.0268 -34.96016,0.0268 -38.4175,0 -54.11793,-0.012 -34.88984,-0.0268 z m -41.16491,-2.32833 c -0.13164,-0.16786 -0.1279,-0.1716 0.04,-0.04 0.17629,0.13826 0.23235,0.22517 0.14525,0.22517 -0.022,0 -0.10532,-0.0833 -0.18521,-0.18521 z m 152.51933,-0.50271 c 0.19746,-0.20373 0.38284,-0.37042 0.41194,-0.37042 0.0291,0 -0.10864,0.16669 -0.3061,0.37042 -0.19747,0.20373 -0.38284,0.37042 -0.41194,0.37042 -0.0291,0 0.10864,-0.16669 0.3061,-0.37042 z m -153.6835,-0.66146 c -0.13164,-0.16785 -0.1279,-0.1716 0.04,-0.04 0.10186,0.0799 0.18521,0.16323 0.18521,0.1852 0,0.0871 -0.0869,0.031 -0.22517,-0.14525 z m 156.54936,-5.48569 c 0.005,-0.12329 0.0301,-0.14837 0.0639,-0.0639 0.0306,0.0764 0.0268,0.16768 -0.008,0.20285 -0.0352,0.0352 -0.0602,-0.0274 -0.0556,-0.13891 z M 208.42537,61.079315 c 0,-48.865896 0.012,-68.8564896 0.0267,-44.423542 0.0147,24.432948 0.0147,64.414136 0,88.847087 -0.0147,24.43294 -0.0267,4.44235 -0.0267,-44.423545 z m 165.894,75.842545 c 0,-0.022 0.0833,-0.10532 0.18521,-0.18521 0.16786,-0.13164 0.1716,-0.1279 0.04,0.04 -0.13826,0.17629 -0.22517,0.23235 -0.22517,0.14525 z m -152.51384,-0.56859 -0.25657,-0.29104 0.29104,0.25657 c 0.16007,0.14112 0.29104,0.27209 0.29104,0.29105 0,0.083 -0.0857,0.0155 -0.32551,-0.25658 z m 153.36051,-0.27808 c 0,-0.022 0.0833,-0.10532 0.18521,-0.18521 0.16785,-0.13164 0.1716,-0.1279 0.04,0.04 -0.13825,0.17629 -0.22516,0.23235 -0.22516,0.14525 z M 361.77781,51.501398 c 0,-39.46525 0.012,-55.6259474 0.0268,-35.912661 0.0147,19.713286 0.0147,52.003036 0,71.755 -0.0147,19.751963 -0.0268,3.622911 -0.0268,-35.842339 z m -26.43156,-71.772174 c 0.0728,-0.02936 0.19182,-0.02936 0.26458,0 0.0728,0.02936 0.0132,0.05338 -0.13229,0.05338 -0.14552,0 -0.20505,-0.02402 -0.13229,-0.05338 z m -8.741,-9.031576 c 0,-0.145521 0.024,-0.205052 0.0534,-0.132291 0.0294,0.07276 0.0294,0.191823 0,0.264583 -0.0294,0.07276 -0.0534,0.01323 -0.0534,-0.132292 z m 24.71347,-6.852698 c 4.84125,-0.01522 12.79463,-0.01523 17.67417,-4e-6 4.87954,0.01522 0.91852,0.02768 -8.80227,0.02768 -9.72079,2e-6 -13.71314,-0.01245 -8.8719,-0.02768 z m -149.58504,-7.613977 c 0.10297,-0.02683 0.24585,-0.02507 0.3175,0.0039 0.0717,0.02899 -0.0126,0.05094 -0.18722,0.04879 -0.17463,-0.0022 -0.23325,-0.02588 -0.13028,-0.05271 z"
         id="path62" /><path
         style="fill:#959595"
         d="m 351.15858,156.54098 c 0,-0.14552 0.024,-0.20505 0.0534,-0.13229 0.0294,0.0728 0.0294,0.19182 0,0.26458 -0.0294,0.0728 -0.0534,0.0132 -0.0534,-0.13229 z m 23.68996,-20.16125 c 0.13671,-0.14552 0.27237,-0.26458 0.30148,-0.26458 0.0291,0 -0.0589,0.11906 -0.19565,0.26458 -0.13671,0.14552 -0.27237,0.26458 -0.30148,0.26458 -0.0291,0 0.0589,-0.11906 0.19565,-0.26458 z m -155.88415,-6.25298 c 0.005,-0.12329 0.0302,-0.14837 0.0639,-0.0639 0.0306,0.0764 0.0268,0.16768 -0.008,0.20285 -0.0352,0.0352 -0.0602,-0.0273 -0.0556,-0.1389 z m 47.68734,-6.89681 c 17.41406,-0.0147 45.94144,-0.0147 63.39416,0 17.45273,0.0147 3.20486,0.0268 -31.66193,0.0268 -34.8668,0 -49.1463,-0.0121 -31.73223,-0.0268 z m 69.12446,-143.502921 c 0.0764,-0.03057 0.16768,-0.02681 0.20285,0.0084 0.0352,0.03517 -0.0273,0.06018 -0.1389,0.05559 -0.12329,-0.0051 -0.14837,-0.03016 -0.064,-0.06394 z m -9.16164,-21.596958 -0.026,-12.408837 -45.79938,-0.0267 -45.79937,-0.0267 45.8027,-0.02634 c 36.56414,-0.02102 45.81285,3.47e-4 45.85307,0.105955 0.0277,0.07276 0.0379,5.680604 0.0227,12.461875 l -0.0277,12.329583 z M 206.3433,-43.775033 c 2.34722,-0.0159 6.15722,-0.01589 8.46666,1.5e-5 2.30945,0.0159 0.389,0.02891 -4.26767,0.0289 -4.65667,-9e-6 -6.54621,-0.01302 -4.19899,-0.02892 z m 12.62109,-17.444888 c 0.005,-0.12329 0.0302,-0.148368 0.0639,-0.06394 0.0306,0.0764 0.0268,0.16768 -0.008,0.202847 -0.0352,0.03517 -0.0602,-0.02734 -0.0556,-0.138906 z m 8.96764,-9.112227 c 0.0764,-0.03057 0.16768,-0.02681 0.20285,0.0084 0.0352,0.03517 -0.0273,0.06018 -0.13891,0.05559 -0.12329,-0.0051 -0.14837,-0.03016 -0.0639,-0.06394 z"
         id="path61" /><path
         style="fill:#717171"
         d="m 351.19233,147.80973 c 0,-4.71487 0.013,-6.65914 0.0289,-4.3206 0.0159,2.33854 0.0159,6.19617 1e-5,8.5725 -0.0159,2.37633 -0.0289,0.46298 -0.0289,-4.2519 z M 218.96439,129.80925 c 0.005,-0.12329 0.0302,-0.14837 0.0639,-0.064 0.0306,0.0764 0.0268,0.16768 -0.008,0.20285 -0.0352,0.0352 -0.0602,-0.0273 -0.0556,-0.1389 z m 16.02515,-95.347018 c 0,-48.836792 0.012,-68.799647 0.0267,-44.3619 0.0147,24.437747 0.0147,64.395122 0,88.794167 -0.0147,24.399041 -0.0267,4.404524 -0.0267,-44.432267 z m 107.52459,-79.6925 c 10e-6,-5.005917 0.0129,-7.03831 0.0288,-4.51643 0.0158,2.52188 0.0158,6.61763 -1e-5,9.101667 -0.0158,2.484036 -0.0288,0.420679 -0.0288,-4.585237 z M 218.96439,-60.902421 c 0.005,-0.12329 0.0302,-0.148368 0.0639,-0.06394 0.0306,0.0764 0.0268,0.16768 -0.008,0.202847 -0.0352,0.03517 -0.0602,-0.02734 -0.0556,-0.138906 z"
         id="path60" /><path
         style="fill:#626262"
         d="m 335.21015,144.58181 c 0,-2.93952 0.0136,-4.14205 0.0302,-2.67229 0.0166,1.46976 0.0166,3.87483 0,5.34459 -0.0166,1.46976 -0.0302,0.26723 -0.0302,-2.6723 z M 219.00867,50.972232 c 0,-43.3070004 0.012,-61.007673 0.0267,-39.334829 0.0147,21.672845 0.0147,57.105845 0,78.74 -0.0147,21.634157 -0.0267,3.901829 -0.0267,-39.405171 z m 123.59535,-71.25228 c 3.54066,-0.01546 9.30328,-0.01546 12.80583,7e-6 3.50255,0.01547 0.60565,0.02812 -6.43756,0.02812 -7.04321,-3e-6 -9.90893,-0.01266 -6.36827,-0.02812 z M 219.00649,-52.268185 c 0,-4.685771 0.013,-6.602677 0.0289,-4.259792 0.0159,2.342886 0.0159,6.176698 0,8.519584 -0.0159,2.342885 -0.0289,0.425979 -0.0289,-4.259792 z"
         id="path59" /><path
         style="fill:#525252"
         d="m 228.34875,139.22006 c 0.0728,-0.0294 0.19182,-0.0294 0.26458,0 0.0728,0.0294 0.0132,0.0534 -0.13229,0.0534 -0.14552,0 -0.20505,-0.024 -0.13229,-0.0534 z m 139.80583,0 c 0.0728,-0.0294 0.19182,-0.0294 0.26458,0 0.0728,0.0294 0.0132,0.0534 -0.13229,0.0534 -0.14552,0 -0.20505,-0.024 -0.13229,-0.0534 z M 342.51383,-62.322352 c 0,-4.394729 0.0131,-6.192573 0.029,-3.995208 0.016,2.197365 0.016,5.793052 0,7.990417 -0.016,2.197364 -0.029,0.39952 -0.029,-3.995209 z m -89.49727,-8.016874 c 13.52365,-0.0148 35.62165,-0.0148 49.10667,10e-7 13.48502,0.0148 2.42023,0.02691 -24.58844,0.02691 -27.00867,-10e-7 -38.04187,-0.01211 -24.51823,-0.02691 z"
         id="path58" /><path
         style="fill:#2f2f2f"
         d="m 201.36786,165.78202 c 0.0764,-0.0306 0.16768,-0.0268 0.20285,0.008 0.0352,0.0352 -0.0273,0.0602 -0.13891,0.0556 -0.12329,-0.005 -0.14837,-0.0302 -0.0639,-0.0639 z m 140.6525,0 c 0.0764,-0.0306 0.16768,-0.0268 0.20285,0.008 0.0352,0.0352 -0.0273,0.0602 -0.13891,0.0556 -0.12329,-0.005 -0.14837,-0.0302 -0.0639,-0.0639 z m 5.73485,-2.296 c 0,-0.022 0.0833,-0.10532 0.1852,-0.1852 0.16786,-0.13165 0.1716,-0.1279 0.04,0.04 -0.13826,0.17629 -0.22516,0.23236 -0.22516,0.14525 z m 0.74083,-0.74083 c 0,-0.022 0.0833,-0.10532 0.18521,-0.18521 0.16785,-0.13164 0.1716,-0.1279 0.04,0.04 -0.13825,0.17629 -0.22516,0.23235 -0.22516,0.14525 z m -156.09581,-6.26594 c 0.005,-0.12329 0.0302,-0.14837 0.0639,-0.064 0.0306,0.0764 0.0268,0.16768 -0.008,0.20285 -0.0352,0.0352 -0.0602,-0.0273 -0.0556,-0.1389 z m 62.8831,-17.26848 c 14.65395,-0.0148 38.63314,-0.0148 53.28708,0 14.65395,0.0148 2.66436,0.0269 -26.64354,0.0269 -29.30789,0 -41.29749,-0.0121 -26.64354,-0.0269 z m 100.17913,3e-5 c 2.34723,-0.0159 6.15723,-0.0159 8.46667,2e-5 2.30945,0.0159 0.38899,0.0289 -4.26767,0.0289 -4.65667,-1e-5 -6.54622,-0.013 -4.199,-0.0289 z m -133.60098,-2.91044 -0.41836,-0.4498 0.44979,0.41836 c 0.41831,0.38906 0.49843,0.48123 0.41836,0.48123 -0.0173,0 -0.2197,-0.20241 -0.44979,-0.44979 z m 155.85291,-6.38528 c 0.005,-0.12329 0.0302,-0.14837 0.0639,-0.0639 0.0306,0.0764 0.0268,0.16768 -0.008,0.20285 -0.0352,0.0352 -0.0602,-0.0274 -0.0556,-0.13891 z M 210.99208,-27.794143 c 1.46976,-0.0166 3.87482,-0.0166 5.34458,0 1.46976,0.0166 0.26723,0.03018 -2.67229,0.03018 -2.93952,0 -4.14205,-0.01358 -2.67229,-0.03018 z m -18.59185,-6.544111 c 0.005,-0.12329 0.0302,-0.148368 0.0639,-0.06394 0.0306,0.0764 0.0268,0.167679 -0.008,0.202847 -0.0352,0.03517 -0.0602,-0.02734 -0.0556,-0.138906 z m 29.51914,-33.117014 c 0.19746,-0.20373 0.38284,-0.370417 0.41194,-0.370417 0.0291,0 -0.10864,0.166687 -0.3061,0.370417 -0.19747,0.203729 -0.38284,0.370416 -0.41194,0.370416 -0.0291,0 0.10864,-0.166687 0.3061,-0.370416 z m 108.61146,-2.88392 c 2.19736,-0.01597 5.79305,-0.01597 7.99042,0 2.19736,0.01597 0.39952,0.02904 -3.99521,0.02904 -4.39473,0 -6.19257,-0.01307 -3.99521,-0.02904 z"
         id="path57" /><rect
         style="fill:#d2ffd3;fill-opacity:1;stroke:#000000;stroke-width:3.0862595;stroke-dasharray:none;stroke-opacity:1"
         id="rect1"
         width="25.186993"
         height="27.439196"
         x="179.74156"
         y="-75.080711"
         ry="4.6395426" /><rect
         style="fill:#d2ffd3;fill-opacity:1;stroke:#000000;stroke-width:3.08626;stroke-dasharray:none;stroke-opacity:1"
         id="rect2"
         width="25.186993"
         height="27.439196"
         x="172.34927"
         y="-67.192932"
         ry="4.6395426" /></g></g></g></svg>
