<?xml version="1.0" encoding="UTF-8" standalone="no"?>
<svg
   height="24px"
   id="Layer_1"
   version="1.2"
   viewBox="0 0 24 24"
   width="24px"
   xml:space="preserve"
   sodipodi:docname="invert.svg"
   inkscape:export-filename="invert.png"
   inkscape:export-xdpi="4000"
   inkscape:export-ydpi="4000"
   inkscape:version="1.4 (1:1.4+202410161351+e7c3feb100)"
   xmlns:inkscape="http://www.inkscape.org/namespaces/inkscape"
   xmlns:sodipodi="http://sodipodi.sourceforge.net/DTD/sodipodi-0.dtd"
   xmlns="http://www.w3.org/2000/svg"
   xmlns:svg="http://www.w3.org/2000/svg"><defs
     id="defs17" /><sodipodi:namedview
     id="namedview15"
     pagecolor="#ffffff"
     bordercolor="#999999"
     borderopacity="1"
     inkscape:showpageshadow="0"
     inkscape:pageopacity="0"
     inkscape:pagecheckerboard="0"
     inkscape:deskcolor="#d1d1d1"
     showgrid="false"
     inkscape:zoom="8.3958329"
     inkscape:cx="30.491317"
     inkscape:cy="-11.672457"
     inkscape:window-width="1920"
     inkscape:window-height="1008"
     inkscape:window-x="0"
     inkscape:window-y="0"
     inkscape:window-maximized="1"
     inkscape:current-layer="g3847" /><g
     id="g3847"
     transform="translate(-3.5266429,3.5266418)"><path
       style="fill:#000000"
       d="m 12.130875,18.176158 c -0.174064,-0.02314 -0.491938,-0.176074 -3.7120808,-1.785901 -3.11043,-1.554979 -3.410309,-1.710011 -3.520146,-1.819847 -0.402001,-0.402002 -0.391472,-1.068475 0.02294,-1.45215 0.171303,-0.158597 6.8151008,-3.5032965 7.0731148,-3.5608321 0.686782,-0.1531477 1.351518,0.2426756 1.529303,0.9106371 0.02604,0.09782 0.03437,0.300815 0.03458,0.842857 l 2.85e-4,0.714 h 5.336856 c 5.873692,0 5.563126,-0.0077 5.933111,0.146364 1.553755,0.64683 1.461721,2.852349 -0.142417,3.412915 l -0.21955,0.07672 -5.454,0.0064 -5.454,0.0064 v 0.714601 c 0,0.564244 -0.0077,0.744288 -0.03675,0.85569 -0.158857,0.609894 -0.76431,1.015588 -1.391251,0.932232 z M 18.381556,7.3716772 c -0.689798,-0.220744 -0.886681,-0.606267 -0.886681,-1.736235 v -0.71452 h -5.336856 c -5.8736918,0 -5.5631258,0.0077 -5.9331108,-0.146364 -1.55343,-0.646694 -1.461385,-2.852466 0.142417,-3.412914 l 0.21955,-0.07672 5.4539998,-0.0064 5.454,-0.0064 V 0.55752219 c 0,-0.564243 0.0077,-0.744287 0.03675,-0.855689 0.180439,-0.692752 0.937403,-1.10797999 1.601905,-0.87871499 0.366853,0.12657 6.902123,3.43278 7.021576,3.552233 0.402782,0.402783 0.390567,1.069308 -0.02667,1.4556 -0.167942,0.155485 -6.8161,3.500898 -7.069386,3.55738 -0.188116,0.04195 -0.519696,0.03376 -0.677488,-0.01674 z"
       id="path46" /></g></svg>
