<?xml version="1.0" encoding="UTF-8" standalone="no"?>
<svg
   id="Layer_1"
   data-name="Layer 1"
   viewBox="0 0 122.88 122.88"
   version="1.1"
   sodipodi:docname="refresh.svg"
   inkscape:version="1.4 (1:1.4+202410161351+e7c3feb100)"
   xmlns:inkscape="http://www.inkscape.org/namespaces/inkscape"
   xmlns:sodipodi="http://sodipodi.sourceforge.net/DTD/sodipodi-0.dtd"
   xmlns="http://www.w3.org/2000/svg"
   xmlns:svg="http://www.w3.org/2000/svg"
   xmlns:rdf="http://www.w3.org/1999/02/22-rdf-syntax-ns#"
   xmlns:cc="http://creativecommons.org/ns#"
   xmlns:dc="http://purl.org/dc/elements/1.1/">
  <sodipodi:namedview
     id="namedview1"
     pagecolor="#ffffff"
     bordercolor="#999999"
     borderopacity="1"
     inkscape:showpageshadow="0"
     inkscape:pageopacity="0"
     inkscape:pagecheckerboard="0"
     inkscape:deskcolor="#d1d1d1"
     inkscape:zoom="3.2796225"
     inkscape:cx="61.439999"
     inkscape:cy="61.287542"
     inkscape:window-width="1920"
     inkscape:window-height="1008"
     inkscape:window-x="0"
     inkscape:window-y="0"
     inkscape:window-maximized="1"
     inkscape:current-layer="g2" />
  <defs
     id="defs1">
    <style
       id="style1">.cls-1{fill-rule:evenodd;}</style>
  </defs>
  <title
     id="title1">sync</title>
  <path
     class="cls-1"
     d="m 61.44,0 c 29.322736,-0.00838175 54.56799,20.699731 60.29256,49.454363 5.7245,28.754266 -9.66664,57.542607 -36.755052,68.767087 C 57.8891,129.44593 26.647043,119.98073 10.35625,95.604769 -5.9347506,71.228492 -2.7348861,38.733727 18,18 29.505955,6.4556973 45.141,-0.02291266 61.44,0 Z M 97.56,25.32 C 80.311126,8.108342 53.30578,5.4770302 33.061819,19.034052 12.818116,32.590902 4.9751205,58.559345 14.320322,81.06259 23.665524,103.56584 47.597158,116.33883 71.489094,111.56693 95.381334,106.79497 112.57813,85.807284 112.56,61.44 112.559,47.885039 107.16137,34.888208 97.56,25.32 Z"
     id="path1"
     sodipodi:nodetypes="cssscccssscc" />
  <g
     id="g2"
     transform="translate(-2.7487876,-4.7417429)">
    <g
       id="g3"
       transform="translate(-3)">
      <path
         d="M 59.208386,101.00993 65.764115,67.715245 72.42305,77.74236 C 86.773281,71.922243 94.81307,62.437135 96.000337,47.828775 107.78249,68.476634 100.63318,86.866132 85.676392,97.680455 l 6.787992,10.233595 z"
         style="fill-rule:evenodd;stroke-width:1.29049"
         id="path1-7"
         sodipodi:nodetypes="ccccccc" />
      <path
         d="M 75.169187,31.353557 68.613457,64.648233 61.954522,54.621118 C 47.604292,60.441235 39.564502,69.926343 38.377235,84.534703 26.595083,63.886844 33.744392,45.497346 48.701181,34.683025 L 41.913189,24.449433 Z"
         style="fill-rule:evenodd;stroke-width:1.29049"
         id="path2"
         sodipodi:nodetypes="ccccccc" />
    </g>
  </g>
  <metadata
     id="metadata3">
    <rdf:RDF>
      <cc:Work
         rdf:about="">
        <dc:title>sync</dc:title>
      </cc:Work>
    </rdf:RDF>
  </metadata>
</svg>
