<?xml version="1.0" encoding="UTF-8" standalone="no"?>
<svg
   width="200"
   height="200"
   viewBox="0 0 52.916665 52.916667"
   version="1.1"
   id="svg3625"
   inkscape:version="1.3.2 (1:1.3.2+202311252150+091e20ef0f)"
   sodipodi:docname="reset.svg"
   xml:space="preserve"
   inkscape:export-filename="Paste.png"
   inkscape:export-xdpi="960"
   inkscape:export-ydpi="960"
   xmlns:inkscape="http://www.inkscape.org/namespaces/inkscape"
   xmlns:sodipodi="http://sodipodi.sourceforge.net/DTD/sodipodi-0.dtd"
   xmlns="http://www.w3.org/2000/svg"
   xmlns:svg="http://www.w3.org/2000/svg"
   xmlns:rdf="http://www.w3.org/1999/02/22-rdf-syntax-ns#"
   xmlns:cc="http://creativecommons.org/ns#"
   xmlns:dc="http://purl.org/dc/elements/1.1/"><title
   id="title1">Reset</title><defs
   id="defs3620" /><sodipodi:namedview
   id="base"
   pagecolor="#ffffff"
   bordercolor="#666666"
   borderopacity="1.0"
   inkscape:pageopacity="0.0"
   inkscape:pageshadow="2"
   inkscape:zoom="1.3594128"
   inkscape:cx="100.411"
   inkscape:cy="100.411"
   inkscape:document-units="mm"
   inkscape:document-rotation="0"
   showgrid="false"
   units="px"
   inkscape:window-width="1920"
   inkscape:window-height="1008"
   inkscape:window-x="0"
   inkscape:window-y="0"
   inkscape:window-maximized="1"
   inkscape:current-layer="g70"
   showborder="true"
   borderlayer="false"
   inkscape:showpageshadow="true"
   inkscape:pagecheckerboard="0"
   inkscape:deskcolor="#d1d1d1" /><metadata
   id="metadata3623"><rdf:RDF><cc:Work
       rdf:about=""><dc:format>image/svg+xml</dc:format><dc:type
         rdf:resource="http://purl.org/dc/dcmitype/StillImage" /><dc:date>10-10-2024</dc:date><dc:creator><cc:Agent><dc:title>Rachid Tagzen</dc:title></cc:Agent></dc:creator><cc:license
         rdf:resource="http://creativecommons.org/licenses/by/4.0/" /><dc:subject><rdf:Bag><rdf:li>Reset</rdf:li><rdf:li>Refresh</rdf:li></rdf:Bag></dc:subject><dc:title>Reset</dc:title></cc:Work><cc:License
       rdf:about="http://creativecommons.org/licenses/by/4.0/"><cc:permits
         rdf:resource="http://creativecommons.org/ns#Reproduction" /><cc:permits
         rdf:resource="http://creativecommons.org/ns#Distribution" /><cc:requires
         rdf:resource="http://creativecommons.org/ns#Notice" /><cc:requires
         rdf:resource="http://creativecommons.org/ns#Attribution" /><cc:permits
         rdf:resource="http://creativecommons.org/ns#DerivativeWorks" /></cc:License></rdf:RDF></metadata>   

<!-- Background rectangles representing two stacked papers --><!-- Horizontal lines representing text on the paper --><!-- Background papers --><!-- Lines representing text --><!-- Base document --><!-- Overlapping document --><!-- Lines representing text --><g
   id="g55"><g
     id="g56"
     transform="translate(-128.28283,118.25139)"><g
       id="g70"
       transform="matrix(1.3678717,0,0,1.2558183,-102.95392,-19.501088)"><g
         id="g1"
         transform="translate(-0.53048645,-1.0038609)"><path
           style="fill:#d0d0d0"
           d="m 194.01831,-40.014761 c 0.0452,-0.0044 0.1192,-0.0044 0.16442,0 0.0452,0.0044 0.008,0.0081 -0.0822,0.0081 -0.0904,0 -0.12742,-0.0036 -0.0822,-0.0081 z m -0.6371,-0.02003 c 0.014,-0.0061 0.0306,-0.0053 0.0371,0.0017 0.006,0.007 -0.005,0.01198 -0.0254,0.01107 -0.0225,-10e-4 -0.0271,-0.006 -0.0117,-0.01273 z m -16.77012,-0.02107 c 0.014,-0.0061 0.0307,-0.0053 0.0371,0.0017 0.006,0.007 -0.005,0.01198 -0.0254,0.01107 -0.0225,-0.001 -0.0271,-0.006 -0.0117,-0.01273 z m -0.82957,-0.401712 -0.0469,-0.05794 0.0532,0.05108 c 0.0497,0.04774 0.0621,0.0648 0.0469,0.0648 -0.003,0 -0.0274,-0.02607 -0.0532,-0.05794 z m 9.7864,-3.097085 c -0.0241,-0.03341 -0.0234,-0.03416 0.007,-0.008 0.0322,0.02752 0.0425,0.04483 0.0265,0.04483 -0.004,0 -0.0192,-0.01659 -0.0339,-0.03687 z m 17.52696,-0.118564 c 0,-0.0044 0.0152,-0.02097 0.0339,-0.03687 0.0307,-0.02621 0.0314,-0.02546 0.007,0.008 -0.0253,0.03509 -0.0412,0.04626 -0.0412,0.02892 z m 0.17408,-0.168549 c 0,-0.0044 0.0152,-0.02097 0.0339,-0.03687 0.0307,-0.02621 0.0314,-0.02546 0.007,0.008 -0.0253,0.0351 -0.0412,0.04626 -0.0412,0.02892 z m -9.27895,-0.197255 c 0.0615,-0.0042 0.1573,-0.0042 0.21276,8.6e-5 0.0555,0.0042 0.005,0.0077 -0.11192,0.0076 -0.11703,-4.7e-5 -0.1624,-0.0035 -0.10084,-0.0077 z m -0.53143,-0.01987 c 0.014,-0.0061 0.0306,-0.0053 0.0371,0.0017 0.006,0.007 -0.005,0.01198 -0.0254,0.01107 -0.0225,-10e-4 -0.0271,-0.006 -0.0117,-0.01273 z m 10.17789,-0.164691 c 0.0578,-0.06373 0.10942,-0.115877 0.11474,-0.115877 0.005,0 -0.0376,0.05215 -0.0954,0.115877 -0.0578,0.06373 -0.10941,0.115878 -0.11473,0.115878 -0.005,0 0.0376,-0.05214 0.0954,-0.115878 z m -18.75459,-0.07901 -0.0368,-0.0474 0.0435,0.04013 c 0.0239,0.02208 0.0435,0.04341 0.0435,0.04741 0,0.01686 -0.0156,0.0044 -0.0502,-0.04014 z m 19.00605,-0.190943 c 0,-0.0036 0.0283,-0.03444 0.0629,-0.06847 l 0.0629,-0.06188 -0.0568,0.06847 c -0.053,0.06383 -0.0689,0.07816 -0.0689,0.06188 z m 0.32882,-0.380596 c 0,-0.0044 0.0152,-0.02097 0.0339,-0.03687 0.0307,-0.02621 0.0314,-0.02546 0.007,0.008 -0.0253,0.03509 -0.0412,0.04626 -0.0412,0.02892 z m -3.19154,-2.193715 c 0.0361,-0.04056 0.07,-0.07374 0.0753,-0.07374 0.005,0 -0.0199,0.03318 -0.0559,0.07374 -0.0361,0.04056 -0.07,0.07374 -0.0753,0.07374 -0.005,0 0.0199,-0.03318 0.0559,-0.07374 z m -13.48433,-0.02634 c -0.0241,-0.03342 -0.0234,-0.03416 0.007,-0.008 0.0322,0.02752 0.0425,0.04482 0.0265,0.04482 -0.004,0 -0.0192,-0.01659 -0.0339,-0.03687 z m 13.73578,-0.243615 c 0,-0.0036 0.0283,-0.03444 0.0629,-0.06847 l 0.0629,-0.06188 -0.0568,0.06847 c -0.053,0.06383 -0.0689,0.07816 -0.0689,0.06188 z m 0.2708,-0.317391 c 0,-0.0044 0.0152,-0.02097 0.0339,-0.03687 0.0307,-0.02621 0.0314,-0.02546 0.007,0.008 -0.0253,0.03509 -0.0411,0.04626 -0.0411,0.02891 z m -7.91479,-1.439102 c 0.014,-0.0061 0.0306,-0.0053 0.0371,0.0017 0.006,0.007 -0.005,0.01198 -0.0254,0.01107 -0.0225,-10e-4 -0.0271,-0.006 -0.0117,-0.01273 z m 0.77371,0 c 0.014,-0.0061 0.0306,-0.0053 0.0371,0.0017 0.006,0.007 -0.005,0.01198 -0.0254,0.01107 -0.0225,-10e-4 -0.0271,-0.006 -0.0117,-0.01273 z m -3.4225,-1.181251 c -0.0241,-0.03342 -0.0234,-0.03416 0.007,-0.008 0.0186,0.0159 0.0338,0.0325 0.0338,0.03687 0,0.01734 -0.0159,0.0062 -0.0411,-0.02892 z m -0.21277,-0.231754 c -0.0241,-0.03342 -0.0234,-0.03416 0.007,-0.008 0.0322,0.02752 0.0425,0.04483 0.0265,0.04483 -0.004,0 -0.0192,-0.01659 -0.0339,-0.03687 z m 7.06255,-0.310762 c 0.0685,-0.07532 0.12896,-0.136946 0.13428,-0.136946 0.005,0 -0.0464,0.06162 -0.11494,0.136946 -0.0685,0.07532 -0.12896,0.136946 -0.13428,0.136946 -0.005,0 0.0464,-0.06163 0.11494,-0.136946 z m -24.52349,-1.106102 c 0,-0.02897 0.004,-0.04082 0.01,-0.02634 0.005,0.01449 0.005,0.03819 0,0.05267 -0.005,0.01449 -0.01,0.0026 -0.01,-0.02634 z m 8.5286,-0.286182 c 9.3e-4,-0.02454 0.006,-0.02954 0.0117,-0.01273 0.006,0.01521 0.005,0.03338 -0.002,0.04038 -0.006,0.007 -0.011,-0.0054 -0.0102,-0.02765 z m -2.69379,-0.739503 c 0.014,-0.0061 0.0307,-0.0053 0.0371,0.0017 0.006,0.007 -0.005,0.01198 -0.0254,0.01107 -0.0225,-10e-4 -0.0271,-0.006 -0.0117,-0.01273 z m -2.14188,-0.503544 c 9.3e-4,-0.02454 0.006,-0.02954 0.0117,-0.01273 0.006,0.01521 0.005,0.03338 -0.002,0.04038 -0.006,0.007 -0.011,-0.0054 -0.0102,-0.02765 z m 4.83567,-0.02107 c 9.3e-4,-0.02454 0.006,-0.02954 0.0117,-0.01273 0.006,0.01521 0.005,0.03338 -0.002,0.04038 -0.006,0.007 -0.011,-0.0054 -0.0102,-0.02765 z m -8.5286,-0.02985 c 0,-0.02897 0.004,-0.04082 0.01,-0.02634 0.005,0.01448 0.005,0.03819 0,0.05267 -0.005,0.01448 -0.01,0.0026 -0.01,-0.02634 z m 21.83486,-0.07116 c 0,-0.0044 0.0152,-0.02097 0.0339,-0.03687 0.0307,-0.02621 0.0314,-0.02546 0.007,0.008 -0.0253,0.03509 -0.0412,0.04626 -0.0412,0.02892 z m 0.11605,-0.128991 c 0.025,-0.02897 0.0498,-0.05267 0.0551,-0.05267 0.005,0 -0.0108,0.0237 -0.0358,0.05267 -0.025,0.02897 -0.0498,0.05267 -0.0551,0.05267 -0.005,0 0.0108,-0.0237 0.0358,-0.05267 z m -4.86469,-0.621524 c 0.0416,-0.04635 0.0799,-0.08427 0.0852,-0.08427 0.005,0 -0.0243,0.03792 -0.0659,0.08427 -0.0416,0.04635 -0.0799,0.08427 -0.0852,0.08427 -0.005,0 0.0243,-0.03792 0.0659,-0.08427 z m 13.86057,-0.391525 c 9.3e-4,-0.02454 0.006,-0.02954 0.0117,-0.01273 0.006,0.01521 0.005,0.03338 -0.002,0.04038 -0.006,0.007 -0.011,-0.0054 -0.0102,-0.02765 z m -12.65648,-0.191281 c 0.0133,-0.0058 0.035,-0.0058 0.0483,0 0.0133,0.0058 0.002,0.01063 -0.0242,0.01063 -0.0266,0 -0.0375,-0.0048 -0.0242,-0.01063 z m 0.12609,-6.47e-4 c 0.0188,-0.0053 0.0449,-0.005 0.058,7.81e-4 0.0131,0.0058 -0.002,0.01014 -0.0342,0.0097 -0.0319,-4.29e-4 -0.0426,-0.0052 -0.0238,-0.01049 z m 16.24572,-0.111811 c 0,-0.02897 0.004,-0.04082 0.01,-0.02634 0.005,0.01449 0.005,0.03819 0,0.05267 -0.005,0.01448 -0.01,0.0026 -0.01,-0.02634 z m -3.69446,-0.04214 c 0,-0.02897 0.004,-0.04082 0.01,-0.02634 0.005,0.01449 0.005,0.03819 0,0.05267 -0.005,0.01448 -0.01,0.0026 -0.01,-0.02634 z m -4.69609,-0.579387 c 4e-5,-0.127465 0.003,-0.176893 0.007,-0.10984 0.004,0.06705 0.004,0.171342 -8e-5,0.231754 -0.004,0.06041 -0.007,0.0056 -0.007,-0.121914 z m -3.69864,0.136946 c 0,-0.02897 0.004,-0.04082 0.01,-0.02634 0.005,0.01448 0.005,0.03819 0,0.05267 -0.005,0.01449 -0.01,0.0026 -0.01,-0.02634 z m 0,-0.252823 c 0,-0.02897 0.004,-0.04082 0.01,-0.02634 0.005,0.01448 0.005,0.03819 0,0.05267 -0.005,0.01449 -0.01,0.0026 -0.01,-0.02634 z m 8.39321,-0.517936 c 9.3e-4,-0.02454 0.006,-0.02954 0.0117,-0.01273 0.006,0.01521 0.005,0.03338 -0.002,0.04038 -0.006,0.007 -0.011,-0.0054 -0.0102,-0.02765 z m 3.69598,-0.05092 c 0,-0.02897 0.004,-0.04082 0.01,-0.02634 0.005,0.01448 0.005,0.03819 0,0.05267 -0.005,0.01448 -0.01,0.0026 -0.01,-0.02634 z m -0.0209,-0.412594 c 9.3e-4,-0.02454 0.006,-0.02954 0.0117,-0.01273 0.006,0.01521 0.005,0.03338 -0.002,0.04038 -0.006,0.007 -0.011,-0.0054 -0.0102,-0.02765 z M 187.582,-58.210576 c 0,-0.0044 0.0152,-0.02097 0.0339,-0.03687 0.0307,-0.02621 0.0314,-0.02546 0.007,0.008 -0.0253,0.03509 -0.0411,0.04626 -0.0411,0.02892 z m 7.3671,-0.09212 c -0.0241,-0.03342 -0.0234,-0.03416 0.007,-0.008 0.0186,0.0159 0.0339,0.03249 0.0339,0.03687 0,0.01734 -0.0159,0.0062 -0.0412,-0.02892 z M 194.58159,-58.703 c -0.0241,-0.03342 -0.0234,-0.03416 0.007,-0.008 0.0186,0.0159 0.0339,0.03249 0.0339,0.03687 0,0.01734 -0.0159,0.0062 -0.0412,-0.02892 z m -10.01705,-1.911975 c 0.025,-0.02897 0.0498,-0.05267 0.0551,-0.05267 0.005,0 -0.0108,0.0237 -0.0358,0.05267 -0.025,0.02897 -0.0498,0.05267 -0.0551,0.05267 -0.005,0 0.0108,-0.0237 0.0358,-0.05267 z m 13.05385,-0.468776 c -0.0241,-0.03342 -0.0234,-0.03416 0.007,-0.008 0.0186,0.0159 0.0339,0.03249 0.0339,0.03687 0,0.01734 -0.0159,0.0062 -0.0412,-0.02891 z m -12.5993,-0.02634 c 0.0193,-0.02318 0.0394,-0.04214 0.0447,-0.04214 0.005,0 -0.006,0.01896 -0.0253,0.04214 -0.0192,0.02317 -0.0394,0.04214 -0.0447,0.04214 -0.005,0 0.006,-0.01896 0.0253,-0.04214 z m 0.2031,-0.197572 c 0,-0.0044 0.0152,-0.02097 0.0339,-0.03687 0.0307,-0.02621 0.0314,-0.02546 0.007,0.008 -0.0253,0.03509 -0.0412,0.04626 -0.0412,0.02892 z m 11.91264,-0.302807 c -0.0241,-0.03342 -0.0234,-0.03416 0.007,-0.008 0.0186,0.0159 0.0339,0.0325 0.0339,0.03687 0,0.01734 -0.0159,0.0062 -0.0411,-0.02891 z m -6.05664,-2.29463 c 0.0133,-0.0058 0.0351,-0.0058 0.0484,0 0.0133,0.0058 0.002,0.01063 -0.0242,0.01063 -0.0266,0 -0.0375,-0.0048 -0.0242,-0.01063 z m -10.08238,-0.196732 c 0.0192,-0.02318 0.0394,-0.04214 0.0447,-0.04214 0.005,0 -0.006,0.01896 -0.0253,0.04214 -0.0192,0.02317 -0.0394,0.04214 -0.0447,0.04214 -0.005,0 0.006,-0.01896 0.0253,-0.04214 z m 20.08493,-0.542517 c -0.0241,-0.03342 -0.0234,-0.03416 0.007,-0.008 0.0186,0.0159 0.0339,0.03249 0.0339,0.03687 0,0.01734 -0.0159,0.0062 -0.0411,-0.02892 z m -19.25319,-0.363433 c 0.0192,-0.02318 0.0394,-0.04214 0.0447,-0.04214 0.005,0 -0.006,0.01896 -0.0253,0.04214 -0.0193,0.02317 -0.0394,0.04214 -0.0447,0.04214 -0.005,0 0.006,-0.01896 0.0253,-0.04214 z m 18.56715,-0.384502 -0.0369,-0.0474 0.0435,0.04013 c 0.0409,0.03772 0.0523,0.05467 0.0369,0.05467 -0.004,0 -0.0233,-0.02133 -0.0435,-0.0474 z m -22.27128,-1.245735 c 0,-0.0044 0.0152,-0.02097 0.0339,-0.03687 0.0307,-0.02621 0.0314,-0.02546 0.007,0.008 -0.0253,0.0351 -0.0412,0.04626 -0.0412,0.02892 z m 0.21277,-0.252823 c 0,-0.0044 0.0152,-0.02097 0.0339,-0.03687 0.0307,-0.02621 0.0314,-0.02546 0.007,0.008 -0.0253,0.03509 -0.0412,0.04626 -0.0412,0.02892 z m 25.60727,-0.302807 c -0.0241,-0.03342 -0.0234,-0.03416 0.007,-0.008 0.0322,0.02752 0.0425,0.04483 0.0265,0.04483 -0.004,0 -0.0192,-0.01659 -0.0339,-0.03687 z m -0.21177,-0.252824 -0.0469,-0.05794 0.0532,0.05108 c 0.0293,0.02809 0.0532,0.05416 0.0532,0.05794 0,0.01652 -0.0157,0.0031 -0.0595,-0.05108 z m -24.49607,-0.426639 c 0.0193,-0.02317 0.0394,-0.04214 0.0447,-0.04214 0.005,0 -0.006,0.01896 -0.0253,0.04214 -0.0193,0.02318 -0.0394,0.04214 -0.0447,0.04214 -0.005,0 0.006,-0.01896 0.0253,-0.04214 z m 0.22244,-0.21864 c 0,-0.0044 0.0152,-0.02097 0.0339,-0.03687 0.0307,-0.02621 0.0314,-0.02546 0.007,0.008 -0.0253,0.03509 -0.0412,0.04626 -0.0412,0.02892 z m 23.52856,-0.165862 -0.0368,-0.0474 0.0435,0.04013 c 0.0409,0.03772 0.0523,0.05467 0.0368,0.05467 -0.004,0 -0.0232,-0.02133 -0.0435,-0.0474 z m -23.35447,-0.0027 c 0,-0.0044 0.0152,-0.02097 0.0339,-0.03687 0.0307,-0.02621 0.0314,-0.02546 0.007,0.008 -0.0253,0.03509 -0.0411,0.04626 -0.0411,0.02892 z m 22.93798,-0.40815 c -0.0241,-0.03342 -0.0234,-0.03416 0.007,-0.008 0.0322,0.02752 0.0425,0.04482 0.0265,0.04482 -0.004,0 -0.0192,-0.01659 -0.0338,-0.03687 z m -10.33017,-0.398895 c 0.014,-0.0061 0.0306,-0.0053 0.0371,0.0017 0.006,0.007 -0.005,0.01198 -0.0254,0.01107 -0.0225,-10e-4 -0.0271,-0.006 -0.0117,-0.01273 z m -0.93933,-0.02177 c 0.0293,-0.0048 0.0771,-0.0048 0.10639,0 0.0292,0.0048 0.005,0.0088 -0.0532,0.0088 -0.0585,0 -0.0824,-0.004 -0.0532,-0.0088 z m 0.26113,-3.36e-4 c 0.0452,-0.0044 0.1192,-0.0044 0.16441,0 0.0452,0.0044 0.008,0.0081 -0.0822,0.0081 -0.0904,0 -0.12742,-0.0036 -0.0822,-0.0081 z m 1.10374,-3.980932 c 0.014,-0.0061 0.0307,-0.0053 0.0371,0.0017 0.006,0.007 -0.005,0.01198 -0.0254,0.01107 -0.0225,-0.001 -0.0271,-0.006 -0.0117,-0.01273 z m -2.01164,-0.02107 c 0.014,-0.0061 0.0307,-0.0053 0.0371,0.0017 0.006,0.007 -0.005,0.01198 -0.0254,0.01107 -0.0225,-10e-4 -0.0271,-0.006 -0.0117,-0.01273 z m 0.75381,-0.02223 c 0.0562,-0.0043 0.14325,-0.0042 0.19342,1e-4 0.0502,0.0043 0.004,0.0078 -0.10219,0.0078 -0.10639,-5.5e-5 -0.14744,-0.0036 -0.0912,-0.0079 z"
           id="path7" /><path
           style="fill:#afafaf"
           d="m 194.75454,-40.034795 c 0.014,-0.0061 0.0307,-0.0053 0.0371,0.0017 0.006,0.007 -0.005,0.01198 -0.0254,0.01107 -0.0225,-10e-4 -0.0271,-0.006 -0.0117,-0.01273 z m -18.07659,-0.02128 c 0.0188,-0.0053 0.0449,-0.005 0.058,7.81e-4 0.0131,0.0058 -0.002,0.01014 -0.0342,0.0097 -0.0319,-4.29e-4 -0.0426,-0.0052 -0.0238,-0.01049 z m 8.83194,-3.561794 c -0.0241,-0.03342 -0.0234,-0.03416 0.007,-0.008 0.0322,0.02752 0.0425,0.04483 0.0265,0.04483 -0.004,0 -0.0193,-0.01659 -0.0339,-0.03687 z m 8.315,-0.419524 c 0.0133,-0.0058 0.035,-0.0058 0.0483,0 0.0133,0.0058 0.002,0.01063 -0.0242,0.01063 -0.0266,0 -0.0375,-0.0048 -0.0242,-0.01063 z m 0.49323,-5.7e-4 c 0.0186,-0.0053 0.0491,-0.0053 0.0677,0 0.0186,0.0053 0.003,0.0096 -0.0339,0.0096 -0.0372,0 -0.0525,-0.0043 -0.0339,-0.0096 z m -9.36917,-0.190896 c -0.0241,-0.03342 -0.0234,-0.03416 0.007,-0.008 0.0322,0.02752 0.0425,0.04482 0.0265,0.04482 -0.004,0 -0.0192,-0.01659 -0.0339,-0.03687 z m 18.88095,-0.205419 c 0.025,-0.02897 0.0498,-0.05267 0.0551,-0.05267 0.005,0 -0.0108,0.0237 -0.0358,0.05267 -0.025,0.02897 -0.0498,0.05267 -0.0551,0.05267 -0.005,0 0.0108,-0.0237 0.0358,-0.05267 z m -16.00681,-2.333347 -0.096,-0.11061 0.10155,0.104551 c 0.0944,0.09715 0.11042,0.116669 0.096,0.116669 -0.003,0 -0.0488,-0.04977 -0.10155,-0.11061 z m 13.08606,-0.171236 c 0,-0.0044 0.0152,-0.02097 0.0339,-0.03687 0.0307,-0.02621 0.0314,-0.02546 0.007,0.008 -0.0253,0.03509 -0.0411,0.04626 -0.0411,0.02892 z m 0.48357,-0.526715 c 0,-0.0044 0.0152,-0.02097 0.0339,-0.03687 0.0307,-0.02621 0.0314,-0.02546 0.007,0.008 -0.0253,0.03509 -0.0412,0.04626 -0.0412,0.02892 z m -10.51367,-2.925848 -0.0765,-0.08954 0.0822,0.08328 c 0.0764,0.07745 0.0911,0.0958 0.0765,0.0958 -0.003,0 -0.0402,-0.04029 -0.0822,-0.08954 z m -17.56888,-1.617015 c 0,-0.02897 0.004,-0.04082 0.01,-0.02634 0.005,0.01448 0.005,0.03819 0,0.05267 -0.005,0.01448 -0.01,0.0026 -0.01,-0.02634 z m 8.5286,-0.265113 c 9.3e-4,-0.02454 0.006,-0.02954 0.0117,-0.01273 0.006,0.01521 0.005,0.03338 -0.002,0.04038 -0.006,0.007 -0.011,-0.0054 -0.0102,-0.02765 z m 3.67978,-0.577631 c 0,-0.07532 0.004,-0.106133 0.008,-0.06847 0.004,0.03766 0.004,0.09929 0,0.136946 -0.004,0.03766 -0.008,0.0068 -0.008,-0.06847 z m -6.53882,-0.09887 c 0.0188,-0.0053 0.0449,-0.005 0.058,7.81e-4 0.0131,0.0058 -0.002,0.01014 -0.0342,0.0097 -0.0319,-4.29e-4 -0.0426,-0.0052 -0.0238,-0.01049 z m 15.03979,-0.147272 c 0.014,-0.0061 0.0307,-0.0053 0.0371,0.0017 0.006,0.007 -0.005,0.01198 -0.0254,0.01107 -0.0225,-10e-4 -0.0271,-0.006 -0.0117,-0.01273 z m -20.70935,-0.322705 c 0,-0.02897 0.004,-0.04082 0.01,-0.02634 0.005,0.01449 0.005,0.03819 0,0.05267 -0.005,0.01449 -0.01,0.0026 -0.01,-0.02633 z m 8.5286,0.0088 c 9.3e-4,-0.02454 0.006,-0.02954 0.0117,-0.01273 0.006,0.01521 0.005,0.03338 -0.002,0.04038 -0.006,0.007 -0.011,-0.0054 -0.0102,-0.02765 z m -4.83567,-0.105343 c 9.3e-4,-0.02454 0.006,-0.02954 0.0117,-0.01273 0.006,0.01521 0.005,0.03338 -0.002,0.04038 -0.006,0.007 -0.011,-0.0054 -0.0102,-0.02765 z m 27.27321,-1.474802 c 9.3e-4,-0.02454 0.006,-0.02954 0.0117,-0.01273 0.006,0.01521 0.005,0.03338 -0.002,0.04038 -0.006,0.007 -0.011,-0.0054 -0.0102,-0.02765 z m 3.69445,-0.105343 c 9.3e-4,-0.02454 0.006,-0.02954 0.0117,-0.01273 0.006,0.01521 0.005,0.03338 -0.002,0.04038 -0.006,0.007 -0.011,-0.0054 -0.0102,-0.02765 z m -12.08919,-0.737401 c 9.3e-4,-0.02454 0.006,-0.02954 0.0117,-0.01273 0.006,0.01521 0.005,0.03338 -0.002,0.04038 -0.006,0.007 -0.011,-0.0054 -0.0102,-0.02765 z m 3.67512,-0.358166 c 9.3e-4,-0.02454 0.006,-0.02954 0.0117,-0.01273 0.006,0.01521 0.005,0.03338 -0.002,0.04038 -0.006,0.007 -0.011,-0.0054 -0.0102,-0.02765 z m 8.41632,-0.04038 c 3.9e-4,-0.03476 0.005,-0.04643 0.01,-0.02594 0.005,0.0205 0.005,0.04894 -7.2e-4,0.06321 -0.005,0.01426 -0.009,-0.0025 -0.009,-0.03727 z M 184.6226,-60.67556 c 0,-0.0044 0.0152,-0.02097 0.0339,-0.03687 0.0307,-0.02621 0.0314,-0.02546 0.007,0.008 -0.0253,0.03509 -0.0411,0.04626 -0.0411,0.02892 z m 6.5342,-3.229934 c 0.014,-0.0061 0.0307,-0.0053 0.0371,0.0017 0.006,0.007 -0.005,0.01198 -0.0254,0.01107 -0.0225,-10e-4 -0.0271,-0.006 -0.0117,-0.01273 z m 0.66648,-2.08e-4 c 0.0188,-0.0053 0.0449,-0.005 0.058,7.81e-4 0.0131,0.0058 -0.002,0.01014 -0.0342,0.0097 -0.0319,-4.29e-4 -0.0426,-0.0052 -0.0238,-0.01049 z m -10.48894,-0.585854 c 0.0578,-0.06373 0.10941,-0.115878 0.11473,-0.115878 0.005,0 -0.0376,0.05215 -0.0954,0.115878 -0.0578,0.06373 -0.10942,0.115877 -0.11474,0.115877 -0.005,0 0.0376,-0.05214 0.0954,-0.115877 z m 0.19342,-0.210686 c 0.0361,-0.04056 0.07,-0.07374 0.0753,-0.07374 0.005,0 -0.0198,0.03318 -0.0559,0.07374 -0.0361,0.04056 -0.07,0.07374 -0.0753,0.07374 -0.005,0 0.0198,-0.03318 0.0559,-0.07374 z m -3.13351,-2.251761 c 0,-0.0044 0.0152,-0.02097 0.0339,-0.03687 0.0307,-0.02621 0.0314,-0.02546 0.007,0.008 -0.0253,0.0351 -0.0411,0.04626 -0.0411,0.02892 z m 25.25005,-0.587233 -0.0368,-0.0474 0.0435,0.04014 c 0.0409,0.03772 0.0523,0.05467 0.0368,0.05467 -0.004,0 -0.0233,-0.02133 -0.0435,-0.0474 z m -12.50805,-1.54761 c 0.0239,-0.005 0.0631,-0.005 0.087,0 0.0239,0.005 0.004,0.0091 -0.0435,0.0091 -0.0479,0 -0.0675,-0.0041 -0.0435,-0.0091 z m 0.677,9.16e-4 c 0.0133,-0.0058 0.035,-0.0058 0.0483,0 0.0133,0.0058 0.002,0.01063 -0.0242,0.01063 -0.0266,0 -0.0375,-0.0048 -0.0242,-0.01063 z m -1.10254,-4.003034 c 0.0133,-0.0058 0.0351,-0.0058 0.0484,0 0.0133,0.0058 0.002,0.01063 -0.0242,0.01063 -0.0266,0 -0.0375,-0.0048 -0.0242,-0.01063 z m 1.56797,-4.39e-4 c 0.014,-0.0061 0.0306,-0.0053 0.0371,0.0017 0.006,0.007 -0.005,0.01198 -0.0254,0.01107 -0.0225,-0.001 -0.0271,-0.006 -0.0117,-0.01273 z"
           id="path6" /><path
           style="fill:#8f8f8f"
           d="m 194.69652,-40.034795 c 0.014,-0.0061 0.0306,-0.0053 0.0371,0.0017 0.006,0.007 -0.005,0.01198 -0.0254,0.01107 -0.0225,-10e-4 -0.0271,-0.006 -0.0117,-0.01273 z m -9.24466,-3.646277 c -0.0241,-0.03342 -0.0234,-0.03416 0.007,-0.008 0.0322,0.02752 0.0425,0.04483 0.0265,0.04483 -0.004,0 -0.0192,-0.01659 -0.0339,-0.03687 z m 8.28635,-0.356965 c 0.0188,-0.0053 0.0449,-0.005 0.058,7.8e-4 0.0131,0.0058 -0.002,0.01014 -0.0342,0.0097 -0.0319,-4.3e-4 -0.0426,-0.0052 -0.0238,-0.01049 z m 0.68751,2.08e-4 c 0.014,-0.0061 0.0306,-0.0053 0.0371,0.0017 0.006,0.007 -0.005,0.01198 -0.0254,0.01107 -0.0225,-10e-4 -0.0271,-0.006 -0.0117,-0.01273 z m -21.11555,-8.054882 c 0,-0.02897 0.004,-0.04082 0.01,-0.02633 0.005,0.01448 0.005,0.03819 0,0.05267 -0.005,0.01449 -0.01,0.0026 -0.01,-0.02634 z m 8.5286,-0.244044 c 9.3e-4,-0.02454 0.006,-0.02954 0.0117,-0.01273 0.006,0.01521 0.005,0.03338 -0.002,0.04038 -0.006,0.007 -0.011,-0.0054 -0.0102,-0.02765 z m -4.84957,-0.430151 c 0,-0.110083 0.003,-0.155117 0.007,-0.100076 0.004,0.05504 0.004,0.14511 0,0.200152 -0.004,0.05504 -0.007,0.01001 -0.007,-0.100076 z m 8.52765,0.105343 c 0,-0.04056 0.004,-0.05715 0.009,-0.03687 0.005,0.02028 0.005,0.05346 0,0.07374 -0.005,0.02028 -0.009,0.0037 -0.009,-0.03687 z m 4.33381,-0.22122 c 1.4e-4,-0.05794 0.004,-0.07914 0.008,-0.04711 0.004,0.03203 0.004,0.07943 -2.7e-4,0.105343 -0.005,0.02591 -0.008,-2.89e-4 -0.008,-0.05823 z m -4.33453,-0.14748 c 4e-4,-0.03476 0.005,-0.04643 0.01,-0.02594 0.005,0.0205 0.005,0.04894 -7.1e-4,0.06321 -0.005,0.01426 -0.009,-0.0025 -0.009,-0.03727 z m 8.42481,-0.06663 c 0.0133,-0.0058 0.0351,-0.0058 0.0484,0 0.0133,0.0058 0.002,0.01063 -0.0242,0.01063 -0.0266,0 -0.0375,-0.0048 -0.0242,-0.01063 z m 0.1354,0 c 0.0133,-0.0058 0.0351,-0.0058 0.0484,0 0.0133,0.0058 0.002,0.01063 -0.0242,0.01063 -0.0266,0 -0.0375,-0.0048 -0.0242,-0.01063 z m -20.76617,-0.23887 c 0,-0.02897 0.004,-0.04082 0.01,-0.02634 0.005,0.01449 0.005,0.03819 0,0.05267 -0.005,0.01448 -0.01,0.0026 -0.01,-0.02634 z m 8.5286,-0.01229 c 9.3e-4,-0.02454 0.006,-0.02954 0.0117,-0.01273 0.006,0.01521 0.005,0.03338 -0.002,0.04038 -0.006,0.007 -0.011,-0.0054 -0.0102,-0.02765 z m -4.83567,-0.231755 c 9.3e-4,-0.02454 0.006,-0.02954 0.0117,-0.01273 0.006,0.01521 0.005,0.03338 -0.002,0.04038 -0.006,0.007 -0.011,-0.0054 -0.0102,-0.02765 z m -3.67511,-0.273891 c 9.2e-4,-0.02454 0.006,-0.02954 0.0117,-0.01273 0.006,0.01521 0.005,0.03338 -0.002,0.04038 -0.006,0.007 -0.011,-0.0054 -0.0102,-0.02765 z m 34.6443,-1.315032 c 0,-0.02897 0.004,-0.04082 0.01,-0.02634 0.005,0.01449 0.005,0.03819 0,0.05267 -0.005,0.01448 -0.01,0.0026 -0.01,-0.02634 z m -3.67664,-0.433662 c 9.3e-4,-0.02454 0.006,-0.02954 0.0117,-0.01273 0.006,0.01521 0.005,0.03338 -0.002,0.04038 -0.006,0.007 -0.011,-0.0054 -0.0102,-0.02765 z m 3.67664,-0.535494 c 0,-0.02897 0.004,-0.04082 0.01,-0.02634 0.005,0.01448 0.005,0.03819 0,0.05267 -0.005,0.01449 -0.01,0.0026 -0.01,-0.02634 z m -13.20566,-2.386019 -0.0568,-0.06847 0.0629,0.06188 c 0.0586,0.05768 0.0717,0.07507 0.0568,0.07507 -0.003,0 -0.0316,-0.03081 -0.0629,-0.06847 z m -9.96028,-2.354416 c 0.0739,-0.08111 0.13872,-0.14748 0.14403,-0.14748 0.005,0 -0.0508,0.06637 -0.12469,0.14748 -0.0739,0.08111 -0.13871,0.147481 -0.14403,0.147481 -0.005,0 0.0508,-0.06637 0.12469,-0.147481 z m 12.71536,-0.310761 c -0.0241,-0.03342 -0.0234,-0.03416 0.007,-0.008 0.0186,0.0159 0.0339,0.03249 0.0339,0.03687 0,0.01734 -0.0159,0.0062 -0.0411,-0.02892 z m -0.29014,-0.316029 c -0.0241,-0.03342 -0.0234,-0.03416 0.007,-0.008 0.0186,0.0159 0.0339,0.03249 0.0339,0.03687 0,0.01734 -0.0159,0.0062 -0.0411,-0.02892 z m -6.00791,-2.40062 c 0.0188,-0.0053 0.0449,-0.005 0.058,7.81e-4 0.0131,0.0058 -0.002,0.01014 -0.0342,0.0097 -0.0319,-4.29e-4 -0.0426,-0.0052 -0.0238,-0.01049 z m 0.51221,6.47e-4 c 0.0133,-0.0058 0.0351,-0.0058 0.0484,0 0.0133,0.0058 0.002,0.01063 -0.0242,0.01063 -0.0266,0 -0.0375,-0.0048 -0.0242,-0.01063 z m -10.5466,-0.428487 c 0.0192,-0.02317 0.0394,-0.04214 0.0447,-0.04214 0.005,0 -0.006,0.01896 -0.0253,0.04214 -0.0193,0.02318 -0.0394,0.04214 -0.0447,0.04214 -0.005,0 0.006,-0.01896 0.0253,-0.04214 z m 19.65938,-0.584654 c -0.0241,-0.03342 -0.0234,-0.03416 0.007,-0.008 0.0186,0.0159 0.0339,0.03249 0.0339,0.03687 0,0.01734 -0.0159,0.0062 -0.0412,-0.02892 z m -0.15227,-0.163281 c -0.047,-0.05214 -0.0811,-0.09481 -0.0757,-0.09481 0.005,0 0.0481,0.04266 0.0951,0.09481 0.047,0.05214 0.0811,0.09481 0.0758,0.09481 -0.005,0 -0.0481,-0.04266 -0.0951,-0.09481 z m 2.8796,-2.533499 c -0.0241,-0.03342 -0.0234,-0.03416 0.007,-0.008 0.0186,0.0159 0.0339,0.03249 0.0339,0.03687 0,0.01734 -0.0159,0.0062 -0.0412,-0.02892 z m -24.46605,-0.118565 c 0,-0.0044 0.0152,-0.02097 0.0339,-0.03687 0.0307,-0.02621 0.0314,-0.02546 0.007,0.008 -0.0253,0.0351 -0.0412,0.04626 -0.0412,0.02892 z m 13.22678,-1.33376 c 0.014,-0.0061 0.0306,-0.0053 0.0371,0.0017 0.006,0.007 -0.005,0.01198 -0.0254,0.01107 -0.0225,-10e-4 -0.0271,-0.006 -0.0117,-0.01273 z m -1.27662,-0.02107 c 0.014,-0.0061 0.0306,-0.0053 0.0371,0.0017 0.006,0.007 -0.005,0.01198 -0.0254,0.01107 -0.0225,-0.001 -0.0271,-0.006 -0.0117,-0.01273 z m 0.83053,4.39e-4 c 0.0133,-0.0058 0.035,-0.0058 0.0483,0 0.0133,0.0058 0.002,0.01063 -0.0242,0.01063 -0.0266,0 -0.0375,-0.0048 -0.0242,-0.01063 z m -1.10133,-4.003473 c 0.014,-0.0061 0.0307,-0.0053 0.0371,0.0017 0.006,0.007 -0.005,0.01198 -0.0254,0.01107 -0.0225,-0.001 -0.0271,-0.006 -0.0117,-0.01273 z m 1.41081,4.39e-4 c 0.0133,-0.0058 0.0351,-0.0058 0.0484,0 0.0133,0.0058 0.002,0.01063 -0.0242,0.01063 -0.0266,0 -0.0375,-0.0048 -0.0242,-0.01063 z"
           id="path5" /><path
           style="fill:#6f6f6f"
           d="m 193.5154,-40.034356 c 0.0133,-0.0058 0.0351,-0.0058 0.0484,0 0.0133,0.0058 0.002,0.01063 -0.0242,0.01063 -0.0266,0 -0.0375,-0.0048 -0.0242,-0.01063 z m 1.10254,0 c 0.0133,-0.0058 0.0351,-0.0058 0.0483,0 0.0133,0.0058 0.002,0.01063 -0.0242,0.01063 -0.0266,0 -0.0375,-0.0048 -0.0242,-0.01063 z m -17.02642,-0.428488 c 0.0193,-0.02318 0.0394,-0.04214 0.0447,-0.04214 0.005,0 -0.006,0.01896 -0.0253,0.04214 -0.0193,0.02318 -0.0394,0.04214 -0.0447,0.04214 -0.005,0 0.006,-0.01896 0.0253,-0.04214 z m 16.07983,-3.574985 c 0.014,-0.0061 0.0307,-0.0053 0.0371,0.0017 0.006,0.007 -0.005,0.01198 -0.0254,0.01107 -0.0225,-10e-4 -0.0271,-0.006 -0.0117,-0.01273 z m 0.8124,0 c 0.014,-0.0061 0.0306,-0.0053 0.0371,0.0017 0.006,0.007 -0.005,0.01198 -0.0254,0.01107 -0.0225,-10e-4 -0.0271,-0.006 -0.0117,-0.01273 z m -6.49799,-2.55071 c -0.0241,-0.03342 -0.0234,-0.03416 0.007,-0.008 0.0186,0.0159 0.0338,0.0325 0.0338,0.03687 0,0.01734 -0.0159,0.0062 -0.0411,-0.02892 z m -17.68643,-4.387536 c 0.0192,-0.02318 0.0394,-0.04214 0.0447,-0.04214 0.005,0 -0.006,0.01896 -0.0253,0.04214 -0.0193,0.02318 -0.0394,0.04214 -0.0447,0.04214 -0.005,0 0.006,-0.01896 0.0253,-0.04214 z m 3.01084,-1.20091 c 0,-0.02897 0.004,-0.04082 0.01,-0.02634 0.005,0.01449 0.005,0.03819 0,0.05267 -0.005,0.01448 -0.01,0.0026 -0.01,-0.02634 z m 8.5286,-0.222976 c 9.3e-4,-0.02454 0.006,-0.02954 0.0117,-0.01273 0.006,0.01521 0.005,0.03338 -0.002,0.04038 -0.006,0.007 -0.011,-0.0054 -0.0102,-0.02765 z m 3.67664,-0.156259 c 0,-0.02897 0.004,-0.04082 0.01,-0.02633 0.005,0.01448 0.005,0.03819 0,0.05267 -0.005,0.01449 -0.01,0.0026 -0.01,-0.02634 z m -8.52791,-0.484578 c 0,-0.05214 0.004,-0.07348 0.008,-0.0474 0.005,0.02607 0.005,0.06874 0,0.09481 -0.005,0.02607 -0.008,0.0047 -0.008,-0.04741 z m 8.52791,-0.08427 c 0,-0.02897 0.004,-0.04082 0.01,-0.02634 0.005,0.01449 0.005,0.03819 0,0.05267 -0.005,0.01448 -0.01,0.0026 -0.01,-0.02634 z m -12.20524,-0.126412 c 0,-0.02897 0.004,-0.04082 0.01,-0.02634 0.005,0.01448 0.005,0.03819 0,0.05267 -0.005,0.01449 -0.01,0.0026 -0.01,-0.02634 z m 8.5286,-0.03336 c 9.3e-4,-0.02454 0.006,-0.02954 0.0117,-0.01273 0.006,0.01521 0.005,0.03338 -0.002,0.04038 -0.006,0.007 -0.011,-0.0054 -0.0102,-0.02765 z m 26.13534,-1.999761 c 2.2e-4,-0.04635 0.004,-0.06283 0.009,-0.03663 0.005,0.02621 0.004,0.06413 -3.9e-4,0.08427 -0.005,0.02014 -0.009,-0.0013 -0.008,-0.04765 z m -3.67511,-0.210686 c 2.2e-4,-0.04635 0.004,-0.06283 0.009,-0.03663 0.005,0.02621 0.004,0.06413 -3.9e-4,0.08427 -0.005,0.02014 -0.009,-0.0013 -0.008,-0.04765 z m 0.002,-0.284427 c 0,-0.08691 0.003,-0.122461 0.008,-0.07901 0.004,0.04345 0.004,0.114561 0,0.158015 -0.004,0.04345 -0.008,0.0079 -0.008,-0.07901 z m 3.67166,-0.273891 c 0,-0.02897 0.004,-0.04082 0.01,-0.02634 0.005,0.01449 0.005,0.03819 0,0.05267 -0.005,0.01449 -0.01,0.0026 -0.01,-0.02633 z m -8.4156,-0.03336 c 9.3e-4,-0.02454 0.006,-0.02954 0.0117,-0.01273 0.006,0.01521 0.005,0.03338 -0.002,0.04038 -0.006,0.007 -0.011,-0.0054 -0.0102,-0.02765 z m 4.71962,-0.337098 c 9.3e-4,-0.02454 0.006,-0.02954 0.0117,-0.01273 0.006,0.01521 0.005,0.03338 -0.002,0.04038 -0.006,0.007 -0.011,-0.0054 -0.0102,-0.02765 z m 3.67511,-0.168548 c 9.3e-4,-0.02454 0.006,-0.02954 0.0117,-0.01273 0.006,0.01521 0.005,0.03338 -0.002,0.04038 -0.006,0.007 -0.011,-0.0054 -0.0102,-0.02765 z m -20.56282,-1.430909 c 0.025,-0.02897 0.0498,-0.05267 0.0551,-0.05267 0.005,0 -0.0108,0.0237 -0.0358,0.05267 -0.025,0.02897 -0.0498,0.05267 -0.0551,0.05267 -0.005,0 0.0108,-0.0237 0.0358,-0.05267 z m 7.46382,-0.405571 c -0.0241,-0.03342 -0.0234,-0.03416 0.007,-0.008 0.0186,0.0159 0.0339,0.0325 0.0339,0.03687 0,0.01734 -0.0159,0.0062 -0.0412,-0.02892 z m 2.52608,-2.918001 -0.11545,-0.131679 0.12089,0.125752 c 0.0665,0.06916 0.12089,0.128419 0.12089,0.131679 0,0.01557 -0.0191,-0.0034 -0.12633,-0.125752 z m -6.04882,-2.558902 c 0.0239,-0.005 0.0631,-0.005 0.087,0 0.0239,0.005 0.004,0.0091 -0.0435,0.0091 -0.0479,0 -0.0675,-0.0041 -0.0435,-0.0091 z m 0.19299,-3.37e-4 c 0.0343,-0.0047 0.0953,-0.0047 0.1354,-1.7e-4 0.0401,0.0046 0.012,0.0084 -0.0624,0.0085 -0.0745,9.4e-5 -0.1073,-0.0036 -0.073,-0.0083 z m 9.38401,-0.948683 c -0.0241,-0.03342 -0.0234,-0.03416 0.007,-0.008 0.0186,0.0159 0.0339,0.0325 0.0339,0.03687 0,0.01734 -0.0159,0.0062 -0.0412,-0.02892 z m -0.33786,-0.3687 -0.0368,-0.0474 0.0435,0.04014 c 0.0409,0.03772 0.0523,0.05467 0.0368,0.05467 -0.004,0 -0.0233,-0.02133 -0.0435,-0.0474 z m -22.04885,-1.869839 c 0.0193,-0.02318 0.0394,-0.04214 0.0447,-0.04214 0.005,0 -0.006,0.01896 -0.0253,0.04214 -0.0193,0.02318 -0.0394,0.04214 -0.0447,0.04214 -0.005,0 0.006,-0.01896 0.0253,-0.04214 z m 24.98894,-0.595187 -0.0368,-0.04741 0.0435,0.04014 c 0.0409,0.03772 0.0523,0.05467 0.0368,0.05467 -0.004,0 -0.0233,-0.02133 -0.0435,-0.0474 z m -0.31732,-0.342365 c -0.047,-0.05215 -0.0811,-0.09481 -0.0758,-0.09481 0.005,0 0.0481,0.04266 0.0951,0.09481 0.047,0.05214 0.0811,0.09481 0.0758,0.09481 -0.005,0 -0.0481,-0.04266 -0.0951,-0.09481 z m -12.18953,-1.057288 c 0.014,-0.0061 0.0307,-0.0053 0.0371,0.0017 0.006,0.007 -0.005,0.01198 -0.0254,0.01107 -0.0225,-0.001 -0.0271,-0.006 -0.0117,-0.01273 z m 0.96593,4.39e-4 c 0.0133,-0.0058 0.0351,-0.0058 0.0484,0 0.0133,0.0058 0.002,0.01063 -0.0242,0.01063 -0.0266,0 -0.0375,-0.0048 -0.0242,-0.01063 z m -1.52687,-3.982405 c 0.014,-0.0061 0.0306,-0.0053 0.0371,0.0017 0.006,0.007 -0.005,0.01198 -0.0254,0.01107 -0.0225,-0.001 -0.0271,-0.006 -0.0117,-0.01273 z m 0.40499,-0.02063 c 0.0133,-0.0058 0.0351,-0.0058 0.0484,0 0.0133,0.0058 0.002,0.01063 -0.0242,0.01063 -0.0266,0 -0.0375,-0.0048 -0.0242,-0.01063 z m 1.27662,0 c 0.0133,-0.0058 0.0351,-0.0058 0.0484,0 0.0133,0.0058 0.002,0.01063 -0.0242,0.01063 -0.0266,0 -0.0375,-0.0048 -0.0242,-0.01063 z"
           id="path4" /><path
           style="fill:#4f4f4f"
           d="m 193.59277,-40.034356 c 0.0133,-0.0058 0.0351,-0.0058 0.0484,0 0.0133,0.0058 0.002,0.01063 -0.0242,0.01063 -0.0266,0 -0.0375,-0.0048 -0.0242,-0.01063 z m 0.96835,-4.39e-4 c 0.014,-0.0061 0.0306,-0.0053 0.0371,0.0017 0.006,0.007 -0.005,0.01198 -0.0254,0.01107 -0.0225,-10e-4 -0.0271,-0.006 -0.0117,-0.01273 z m -1.35399,-0.02107 c 0.014,-0.0061 0.0306,-0.0053 0.0371,0.0017 0.006,0.007 -0.005,0.01198 -0.0254,0.01107 -0.0225,-10e-4 -0.0271,-0.006 -0.0117,-0.01273 z m -7.98534,-3.878031 -0.16398,-0.184351 0.16925,0.178618 c 0.15719,0.165895 0.17806,0.190083 0.16398,0.190083 -0.003,0 -0.0791,-0.08296 -0.16925,-0.18435 z m 9.31998,-0.103934 c 0.014,-0.0061 0.0306,-0.0053 0.0371,0.0017 0.006,0.007 -0.005,0.01198 -0.0254,0.01107 -0.0225,-10e-4 -0.0271,-0.006 -0.0117,-0.01273 z m 8.90127,0.0064 c 0,-0.0044 0.0152,-0.02097 0.0339,-0.03687 0.0307,-0.02621 0.0314,-0.02546 0.007,0.008 -0.0253,0.03509 -0.0412,0.04626 -0.0412,0.02892 z m 0.61897,-0.674196 c 0,-0.0044 0.0152,-0.02097 0.0339,-0.03687 0.0307,-0.02621 0.0314,-0.02546 0.007,0.008 -0.0253,0.03509 -0.0412,0.04626 -0.0412,0.02891 z m -16.01822,-1.819746 c -0.0241,-0.03342 -0.0234,-0.03416 0.007,-0.008 0.0322,0.02752 0.0425,0.04482 0.0266,0.04482 -0.004,0 -0.0192,-0.01659 -0.0339,-0.03687 z m 12.7493,-0.287114 c 0,-0.0044 0.0152,-0.02097 0.0339,-0.03687 0.0307,-0.02621 0.0314,-0.02546 0.007,0.008 -0.0253,0.03509 -0.0412,0.04626 -0.0412,0.02891 z m -13.17484,-0.176395 c -0.0241,-0.03342 -0.0234,-0.03416 0.007,-0.008 0.0322,0.02752 0.0425,0.04483 0.0265,0.04483 -0.004,0 -0.0192,-0.01659 -0.0339,-0.03687 z m 6.1885,-2.105451 c 0.014,-0.0061 0.0307,-0.0053 0.0371,0.0017 0.006,0.007 -0.005,0.01198 -0.0254,0.01107 -0.0225,-0.001 -0.0271,-0.006 -0.0117,-0.01273 z m 0.41503,-2.08e-4 c 0.0188,-0.0053 0.0449,-0.005 0.058,7.81e-4 0.0131,0.0058 -0.002,0.01014 -0.0342,0.0097 -0.0319,-4.29e-4 -0.0426,-0.0052 -0.0238,-0.01049 z m -20.9094,-3.208896 c 0,-0.05214 0.004,-0.07348 0.008,-0.0474 0.005,0.02607 0.005,0.06874 0,0.09481 -0.005,0.02607 -0.008,0.0047 -0.008,-0.0474 z m 6.85051,-0.131678 -0.0568,-0.06847 0.0629,0.06188 c 0.0586,0.05768 0.0718,0.07507 0.0568,0.07507 -0.003,0 -0.0316,-0.03081 -0.0629,-0.06847 z m 1.67813,-0.04741 c 3.9e-4,-0.03476 0.005,-0.04643 0.01,-0.02593 0.005,0.0205 0.005,0.04894 -7.2e-4,0.06321 -0.005,0.01427 -0.009,-0.0025 -0.009,-0.03727 z m 3.67287,-0.0018 c 9.3e-4,-0.02454 0.006,-0.02954 0.0117,-0.01273 0.006,0.01521 0.005,0.03338 -0.002,0.04038 -0.006,0.007 -0.011,-0.0054 -0.0102,-0.02765 z m -12.20151,-0.640837 c 0,-0.05214 0.004,-0.07348 0.008,-0.0474 0.005,0.02607 0.005,0.06874 0,0.09481 -0.005,0.02607 -0.008,0.0047 -0.008,-0.0474 z m 3.6729,-0.04214 c 0,-0.02897 0.004,-0.04082 0.01,-0.02634 0.005,0.01449 0.005,0.03819 0,0.05267 -0.005,0.01448 -0.01,0.0026 -0.01,-0.02634 z m 4.85574,-0.0316 c 3.9e-4,-0.03476 0.005,-0.04643 0.01,-0.02594 0.005,0.0205 0.005,0.04894 -7.2e-4,0.06321 -0.005,0.01426 -0.009,-0.0025 -0.009,-0.03727 z m -8.51303,-0.549539 c 9.2e-4,-0.02454 0.006,-0.02954 0.0117,-0.01273 0.006,0.01521 0.005,0.03338 -0.002,0.04038 -0.006,0.007 -0.011,-0.0054 -0.0102,-0.02765 z m 19.65911,-0.56183 -0.0568,-0.06847 0.0629,0.06188 c 0.0346,0.03403 0.0629,0.06485 0.0629,0.06847 0,0.01628 -0.016,0.0019 -0.0689,-0.06188 z m 14.96432,-0.470532 c 9.3e-4,-0.02454 0.006,-0.02954 0.0117,-0.01273 0.006,0.01521 0.005,0.03338 -0.002,0.04038 -0.006,0.007 -0.011,-0.0054 -0.0102,-0.02765 z m -8.39473,-0.44244 c 9.3e-4,-0.02454 0.006,-0.02954 0.0117,-0.01273 0.006,0.01521 0.005,0.03338 -0.002,0.04038 -0.006,0.007 -0.011,-0.0054 -0.0102,-0.02765 z m 4.74231,-0.124656 c 2.2e-4,-0.04635 0.004,-0.06283 0.009,-0.03663 0.005,0.02621 0.004,0.06413 -3.9e-4,0.08427 -0.005,0.02014 -0.009,-0.0013 -0.008,-0.04765 z m 3.6755,-0.09481 c 0,-0.05214 0.004,-0.07348 0.008,-0.0474 0.005,0.02607 0.005,0.06874 0,0.09481 -0.005,0.02607 -0.008,0.0047 -0.008,-0.0474 z m 0.001,-0.421372 c 0,-0.08691 0.003,-0.122461 0.008,-0.07901 0.004,0.04345 0.004,0.11456 0,0.158014 -0.004,0.04345 -0.008,0.0079 -0.008,-0.07901 z m -3.67785,-0.115877 c 4e-4,-0.03476 0.005,-0.04643 0.01,-0.02594 0.005,0.0205 0.005,0.04894 -7.2e-4,0.06321 -0.005,0.01426 -0.009,-0.0025 -0.009,-0.03727 z m -4.7412,-0.04389 c 9.3e-4,-0.02454 0.006,-0.02954 0.0117,-0.01273 0.006,0.01521 0.005,0.03338 -0.002,0.04038 -0.006,0.007 -0.011,-0.0054 -0.0102,-0.02765 z M 187.30132,-57.9288 c 0.0193,-0.02317 0.0394,-0.04214 0.0447,-0.04214 0.005,0 -0.006,0.01896 -0.0253,0.04214 -0.0192,0.02318 -0.0394,0.04214 -0.0447,0.04214 -0.005,0 0.006,-0.01896 0.0253,-0.04214 z m 0.17408,-0.189617 c 0.0193,-0.02318 0.0394,-0.04214 0.0447,-0.04214 0.005,0 -0.006,0.01896 -0.0253,0.04214 -0.0193,0.02318 -0.0394,0.04214 -0.0447,0.04214 -0.005,0 0.006,-0.01896 0.0253,-0.04214 z m 3.95075,-1.785189 c 0.0452,-0.0044 0.1192,-0.0044 0.16441,0 0.0452,0.0044 0.008,0.0081 -0.0822,0.0081 -0.0904,0 -0.12742,-0.0036 -0.0822,-0.0081 z m -10.36285,-4.290522 c 0,-0.0044 0.0152,-0.02097 0.0339,-0.03687 0.0307,-0.02621 0.0314,-0.02546 0.007,0.008 -0.0253,0.03509 -0.0412,0.04626 -0.0412,0.02892 z m 19.92152,-0.576699 -0.0469,-0.05794 0.0532,0.05108 c 0.0497,0.04774 0.0621,0.0648 0.0469,0.0648 -0.003,0 -0.0274,-0.02607 -0.0532,-0.05794 z m -19.30255,-0.0975 c 0,-0.0044 0.0152,-0.02097 0.0339,-0.03687 0.0307,-0.02621 0.0314,-0.02546 0.007,0.008 -0.0253,0.0351 -0.0411,0.04626 -0.0411,0.02892 z m -3.08517,-2.309591 c 0.0193,-0.02317 0.0394,-0.04214 0.0447,-0.04214 0.005,0 -0.006,0.01896 -0.0253,0.04214 -0.0193,0.02318 -0.0394,0.04214 -0.0447,0.04214 -0.005,0 0.006,-0.01896 0.0253,-0.04214 z m 0.37719,-0.406896 c 0,-0.0036 0.0283,-0.03444 0.0629,-0.06847 l 0.0629,-0.06188 -0.0568,0.06847 c -0.053,0.06383 -0.0689,0.07816 -0.0689,0.06188 z m 24.40009,-0.251498 -0.096,-0.11061 0.10155,0.104551 c 0.0558,0.0575 0.10155,0.107278 0.10155,0.11061 0,0.01572 -0.0179,-0.0018 -0.10711,-0.104551 z m -0.49498,-0.51618 c -0.0241,-0.03342 -0.0234,-0.03416 0.007,-0.008 0.0322,0.02752 0.0425,0.04482 0.0265,0.04482 -0.004,0 -0.0192,-0.01659 -0.0339,-0.03687 z m -11.95616,-0.735553 c 0.0133,-0.0058 0.0351,-0.0058 0.0484,0 0.0133,0.0058 0.002,0.01063 -0.0242,0.01063 -0.0266,0 -0.0375,-0.0048 -0.0242,-0.01063 z m 1.12188,0 c 0.0133,-0.0058 0.0351,-0.0058 0.0483,0 0.0133,0.0058 0.002,0.01063 -0.0242,0.01063 -0.0266,0 -0.0375,-0.0048 -0.0242,-0.01063 z m 0.44609,-3.982405 c 0.014,-0.0061 0.0306,-0.0053 0.0371,0.0017 0.006,0.007 -0.005,0.01198 -0.0254,0.01107 -0.0225,-10e-4 -0.0271,-0.006 -0.0117,-0.01273 z m -1.56676,-0.02107 c 0.014,-0.0061 0.0307,-0.0053 0.0371,0.0017 0.006,0.007 -0.005,0.01198 -0.0254,0.01107 -0.0225,-0.001 -0.0271,-0.006 -0.0117,-0.01273 z m 1.12067,4.39e-4 c 0.0133,-0.0058 0.0351,-0.0058 0.0483,0 0.0133,0.0058 0.002,0.01063 -0.0242,0.01063 -0.0266,0 -0.0375,-0.0048 -0.0242,-0.01063 z"
           id="path3" /><path
           style="fill:#2e2e2e"
           d="m 193.68018,-40.035003 c 0.0188,-0.0053 0.0449,-0.005 0.058,7.8e-4 0.0131,0.0058 -0.002,0.01014 -0.0342,0.0097 -0.0319,-4.3e-4 -0.0426,-0.0052 -0.0238,-0.01049 z m 0.80236,6.47e-4 c 0.0133,-0.0058 0.0351,-0.0058 0.0483,0 0.0133,0.0058 0.002,0.01063 -0.0242,0.01063 -0.0266,0 -0.0375,-0.0048 -0.0242,-0.01063 z m 0.42675,-0.02151 c 0.014,-0.0061 0.0306,-0.0053 0.0371,0.0017 0.006,0.007 -0.005,0.01198 -0.0254,0.01107 -0.0225,-0.001 -0.0271,-0.006 -0.0117,-0.01273 z M 175.8192,-40.43651 c -0.0241,-0.03342 -0.0234,-0.03416 0.007,-0.008 0.0186,0.0159 0.0339,0.0325 0.0339,0.03687 0,0.01734 -0.0159,0.0062 -0.0412,-0.02892 z m -0.0774,-0.08427 c -0.0241,-0.03342 -0.0234,-0.03416 0.007,-0.008 0.0186,0.0159 0.0339,0.03249 0.0339,0.03687 0,0.01734 -0.0159,0.0062 -0.0412,-0.02891 z M 185.8,-43.343973 c -0.0241,-0.03342 -0.0234,-0.03416 0.007,-0.008 0.0322,0.02752 0.0425,0.04482 0.0265,0.04482 -0.004,0 -0.0192,-0.01659 -0.0339,-0.03687 z m 17.43024,-0.47673 c 0,-0.0044 0.0152,-0.02097 0.0339,-0.03687 0.0307,-0.02621 0.0314,-0.02546 0.007,0.008 -0.0253,0.03509 -0.0412,0.04626 -0.0412,0.02892 z m -9.65563,-0.217124 c 0.014,-0.0061 0.0307,-0.0053 0.0371,0.0017 0.006,0.007 -0.005,0.01198 -0.0254,0.01107 -0.0225,-0.001 -0.0271,-0.006 -0.0117,-0.01273 z m 1.02516,0 c 0.014,-0.0061 0.0307,-0.0053 0.0371,0.0017 0.006,0.007 -0.005,0.01198 -0.0254,0.01107 -0.0225,-0.001 -0.0271,-0.006 -0.0117,-0.01273 z m 8.90127,-0.05541 c 0,-0.0036 0.0283,-0.03444 0.0629,-0.06847 l 0.0629,-0.06188 -0.0568,0.06847 c -0.053,0.06383 -0.0689,0.07816 -0.0689,0.06188 z m -18.64883,-0.262032 c -0.0241,-0.03342 -0.0234,-0.03416 0.007,-0.008 0.0186,0.0159 0.0339,0.03249 0.0339,0.03687 0,0.01734 -0.0159,0.0062 -0.0412,-0.02891 z m 19.09371,-0.222546 c 0,-0.0036 0.0283,-0.03444 0.0629,-0.06847 l 0.0629,-0.06188 -0.0568,0.06847 c -0.053,0.06383 -0.0689,0.07816 -0.0689,0.06188 z m 0.29014,-0.33846 c 0,-0.0044 0.0152,-0.02097 0.0339,-0.03687 0.0307,-0.02621 0.0314,-0.02546 0.007,0.008 -0.0253,0.03509 -0.0412,0.04626 -0.0412,0.02892 z m -16.13428,-1.545854 c -0.024,-0.03342 -0.0234,-0.03416 0.007,-0.008 0.0322,0.02752 0.0425,0.04482 0.0265,0.04482 -0.004,0 -0.0192,-0.01659 -0.0339,-0.03687 z m -0.54159,-0.589921 c -0.0241,-0.03342 -0.0234,-0.03416 0.007,-0.008 0.0322,0.02752 0.0425,0.04483 0.0265,0.04483 -0.004,0 -0.0192,-0.01659 -0.0339,-0.03687 z m 13.61006,-0.152747 c 0.0953,-0.10429 0.17763,-0.189618 0.18295,-0.189618 0.005,0 -0.0683,0.08533 -0.16361,0.189618 -0.0953,0.104289 -0.17763,0.189617 -0.18295,0.189617 -0.005,0 0.0683,-0.08533 0.16361,-0.189617 z m 0.35784,-0.408258 c 0,-0.0044 0.0152,-0.02097 0.0339,-0.03687 0.0307,-0.02621 0.0314,-0.02546 0.007,0.008 -0.0253,0.0351 -0.0411,0.04626 -0.0411,0.02892 z m -7.63527,-1.481966 c 0.0294,-0.0048 0.0729,-0.0047 0.0967,2.87e-4 0.0238,0.005 -2.6e-4,0.009 -0.0534,0.0088 -0.0532,-1.58e-4 -0.0727,-0.0042 -0.0433,-0.0091 z m 0.23222,5.18e-4 c 0.0188,-0.0053 0.0449,-0.005 0.058,7.81e-4 0.0131,0.0058 -0.002,0.01014 -0.0342,0.0097 -0.0319,-4.29e-4 -0.0426,-0.0052 -0.0238,-0.01049 z m -3.37331,-1.454935 c -0.024,-0.03342 -0.0234,-0.03416 0.007,-0.008 0.0322,0.02752 0.0425,0.04482 0.0265,0.04482 -0.004,0 -0.0192,-0.01659 -0.0339,-0.03687 z m 6.93683,-0.131678 c 0.0193,-0.02318 0.0394,-0.04214 0.0447,-0.04214 0.005,0 -0.006,0.01896 -0.0253,0.04214 -0.0192,0.02318 -0.0394,0.04214 -0.0447,0.04214 -0.005,0 0.006,-0.01896 0.0253,-0.04214 z m 0.25146,-0.273892 c 0.0192,-0.02318 0.0394,-0.04214 0.0447,-0.04214 0.005,0 -0.006,0.01896 -0.0253,0.04214 -0.0193,0.02317 -0.0394,0.04214 -0.0447,0.04214 -0.005,0 0.006,-0.01896 0.0253,-0.04214 z m -17.31987,-0.391525 c 9.3e-4,-0.02454 0.006,-0.02954 0.0117,-0.01273 0.006,0.01521 0.005,0.03338 -0.002,0.04038 -0.006,0.007 -0.011,-0.0054 -0.0102,-0.02765 z m -7.30523,-1.367703 c 2e-5,-0.185404 0.003,-0.25843 0.007,-0.162282 0.004,0.09615 0.004,0.247843 -4e-5,0.337098 -0.004,0.08925 -0.007,0.01059 -0.007,-0.174816 z m 12.19894,0.293204 c 9.3e-4,-0.02454 0.006,-0.02954 0.0117,-0.01273 0.006,0.01521 0.005,0.03338 -0.002,0.04038 -0.006,0.007 -0.011,-0.0054 -0.0102,-0.02765 z m -3.67177,-0.187861 c 2.2e-4,-0.04635 0.004,-0.06283 0.009,-0.03663 0.005,0.02621 0.004,0.06413 -3.9e-4,0.08427 -0.005,0.02014 -0.009,-0.0013 -0.008,-0.04765 z m -3.9e-4,-0.474044 c 0,-0.04056 0.004,-0.05715 0.009,-0.03687 0.005,0.02028 0.005,0.05346 0,0.07374 -0.005,0.02028 -0.009,0.0037 -0.009,-0.03687 z m -4.85573,-0.179083 c 3.9e-4,-0.03476 0.005,-0.04643 0.01,-0.02594 0.005,0.0205 0.005,0.04894 -7.1e-4,0.06321 -0.005,0.01426 -0.009,-0.0025 -0.009,-0.03727 z m 8.52941,0.01053 c 0,-0.02897 0.004,-0.04082 0.01,-0.02634 0.005,0.01448 0.005,0.03819 0,0.05267 -0.005,0.01449 -0.01,0.0026 -0.01,-0.02634 z m 9.70699,-0.389769 c 0.0361,-0.04056 0.07,-0.07374 0.0753,-0.07374 0.005,0 -0.0199,0.03318 -0.0559,0.07374 -0.0361,0.04056 -0.07,0.07374 -0.0753,0.07374 -0.005,0 0.0199,-0.03318 0.0559,-0.07374 z m -21.89289,-0.0316 c 0,-0.02897 0.004,-0.04082 0.01,-0.02633 0.005,0.01448 0.005,0.03819 0,0.05267 -0.005,0.01449 -0.01,0.0026 -0.01,-0.02634 z m 3.67359,-0.05443 c 9.3e-4,-0.02454 0.006,-0.02954 0.0117,-0.01273 0.006,0.01521 0.005,0.03338 -0.002,0.04038 -0.006,0.007 -0.011,-0.0054 -0.0102,-0.02765 z m -3.65577,-0.337097 c 9.3e-4,-0.02454 0.006,-0.02954 0.0117,-0.01273 0.006,0.01521 0.005,0.03338 -0.002,0.04038 -0.006,0.007 -0.011,-0.0054 -0.0102,-0.02765 z m 16.96202,-0.143145 c 0,-0.0044 0.0152,-0.02097 0.0339,-0.03687 0.0307,-0.02621 0.0314,-0.02546 0.007,0.008 -0.0253,0.03509 -0.0412,0.04626 -0.0412,0.02892 z m 13.96696,-0.615325 c 9.3e-4,-0.02454 0.006,-0.02954 0.0117,-0.01273 0.006,0.01521 0.005,0.03338 -0.002,0.04038 -0.006,0.007 -0.011,-0.0054 -0.0102,-0.02765 z m 3.67664,-0.02985 c 0,-0.02897 0.004,-0.04082 0.01,-0.02634 0.005,0.01449 0.005,0.03819 0,0.05267 -0.005,0.01448 -0.01,0.0026 -0.01,-0.02634 z m -3.6573,-0.391525 c 9.3e-4,-0.02454 0.006,-0.02954 0.0117,-0.01273 0.006,0.01521 0.005,0.03338 -0.002,0.04038 -0.006,0.007 -0.011,-0.0054 -0.0102,-0.02765 z m -4.73896,-0.04214 c 9.3e-4,-0.02454 0.006,-0.02954 0.0117,-0.01273 0.006,0.01521 0.005,0.03338 -0.002,0.04038 -0.006,0.007 -0.011,-0.0054 -0.0102,-0.02765 z m 8.41808,-0.335342 c 1.4e-4,-0.05794 0.004,-0.07914 0.008,-0.04711 0.004,0.03203 0.004,0.07943 -2.7e-4,0.105343 -0.005,0.02591 -0.008,-2.89e-4 -0.008,-0.05823 z m -8.41808,-0.338853 c 9.3e-4,-0.02454 0.006,-0.02954 0.0117,-0.01273 0.006,0.01521 0.005,0.03338 -0.002,0.04038 -0.006,0.007 -0.011,-0.0054 -0.0102,-0.02765 z m 4.7412,-0.124656 c 4e-4,-0.03476 0.005,-0.04643 0.01,-0.02594 0.005,0.0205 0.005,0.04894 -7.2e-4,0.06321 -0.005,0.01426 -0.009,-0.0025 -0.009,-0.03727 z m 3.65353,-0.402059 c 9.3e-4,-0.02454 0.006,-0.02954 0.0117,-0.01273 0.006,0.01521 0.005,0.03338 -0.002,0.04038 -0.006,0.007 -0.011,-0.0054 -0.0102,-0.02765 z m -20.7369,-1.344055 c 0,-0.0044 0.0152,-0.02097 0.0339,-0.03687 0.0307,-0.02621 0.0314,-0.02546 0.007,0.008 -0.0253,0.03509 -0.0412,0.04626 -0.0412,0.02892 z m 0.3385,-0.37128 c 0.0192,-0.02318 0.0394,-0.04214 0.0447,-0.04214 0.005,0 -0.006,0.01896 -0.0253,0.04214 -0.0193,0.02318 -0.0394,0.04214 -0.0447,0.04214 -0.005,0 0.006,-0.01896 0.0253,-0.04214 z m 3.73797,-1.699442 c 0.0133,-0.0058 0.0351,-0.0058 0.0484,0 0.0133,0.0058 0.002,0.01063 -0.0242,0.01063 -0.0266,0 -0.0375,-0.0048 -0.0242,-0.01063 z m 0.38686,0 c 0.0133,-0.0058 0.035,-0.0058 0.0483,0 0.0133,0.0058 0.002,0.01063 -0.0242,0.01063 -0.0266,0 -0.0375,-0.0048 -0.0242,-0.01063 z m -7.34539,-0.415373 c 0,-0.0044 0.0152,-0.02097 0.0339,-0.03687 0.0307,-0.02621 0.0314,-0.02546 0.007,0.008 -0.0253,0.03509 -0.0412,0.04626 -0.0412,0.02891 z m 0.20309,-0.244869 c 0.0193,-0.02317 0.0394,-0.04214 0.0447,-0.04214 0.005,0 -0.006,0.01896 -0.0253,0.04214 -0.0193,0.02318 -0.0394,0.04214 -0.0447,0.04214 -0.005,0 0.006,-0.01896 0.0253,-0.04214 z m 0.5416,-0.58992 c 0.0192,-0.02318 0.0394,-0.04214 0.0447,-0.04214 0.005,0 -0.006,0.01896 -0.0253,0.04214 -0.0192,0.02318 -0.0394,0.04214 -0.0447,0.04214 -0.005,0 0.006,-0.01896 0.0253,-0.04214 z m 6.95007,-2.732242 c 0.014,-0.0061 0.0307,-0.0053 0.0371,0.0017 0.006,0.007 -0.005,0.01198 -0.0254,0.01107 -0.0225,-10e-4 -0.0271,-0.006 -0.0117,-0.01273 z m -11.21514,-0.01463 c 0,-0.0044 0.0152,-0.02097 0.0339,-0.03687 0.0307,-0.02621 0.0314,-0.02546 0.007,0.008 -0.0253,0.03509 -0.0412,0.04626 -0.0412,0.02891 z m 0.19343,-0.231755 c 0,-0.0044 0.0152,-0.02097 0.0339,-0.03687 0.0307,-0.02621 0.0314,-0.02546 0.007,0.008 -0.0253,0.03509 -0.0412,0.04626 -0.0412,0.02891 z m 20.05591,-0.55563 c -0.0241,-0.03342 -0.0234,-0.03416 0.007,-0.008 0.0186,0.0159 0.0339,0.0325 0.0339,0.03687 0,0.01734 -0.0159,0.0062 -0.0412,-0.02891 z m -19.29187,-0.279159 c 0.0192,-0.02317 0.0394,-0.04214 0.0447,-0.04214 0.005,0 -0.006,0.01896 -0.0253,0.04214 -0.0193,0.02318 -0.0394,0.04214 -0.0447,0.04214 -0.005,0 0.006,-0.01896 0.0253,-0.04214 z m 0.2031,-0.197572 c 0,-0.0044 0.0152,-0.02097 0.0339,-0.03687 0.0307,-0.02621 0.0314,-0.02546 0.007,0.008 -0.0253,0.03509 -0.0412,0.04625 -0.0412,0.02891 z m 18.48011,-0.18693 -0.0369,-0.0474 0.0435,0.04014 c 0.0409,0.03772 0.0523,0.05467 0.0369,0.05467 -0.004,0 -0.0233,-0.02133 -0.0435,-0.0474 z m -22.34865,-1.245735 c 0,-0.0044 0.0152,-0.02097 0.0339,-0.03687 0.0307,-0.02621 0.0314,-0.02546 0.007,0.008 -0.0253,0.03509 -0.0412,0.04625 -0.0412,0.02891 z m 0.22244,-0.265937 c 0.0192,-0.02317 0.0394,-0.04214 0.0447,-0.04214 0.005,0 -0.006,0.01896 -0.0253,0.04214 -0.0193,0.02318 -0.0394,0.04214 -0.0447,0.04214 -0.005,0 0.006,-0.01896 0.0253,-0.04214 z m 25.63628,-0.289693 c -0.0241,-0.03342 -0.0234,-0.03416 0.007,-0.008 0.0322,0.02752 0.0425,0.04483 0.0265,0.04483 -0.004,0 -0.0192,-0.01659 -0.0339,-0.03687 z m -25.16239,-0.247556 c 0.09,-0.0985 0.16791,-0.179083 0.17323,-0.179083 0.005,0 -0.0639,0.08059 -0.15388,0.179083 -0.09,0.09849 -0.16792,0.179083 -0.17323,0.179083 -0.005,0 0.0639,-0.08059 0.15388,-0.179083 z m 24.96896,0.0158 c -0.0241,-0.03342 -0.0234,-0.03416 0.007,-0.008 0.0322,0.02752 0.0425,0.04482 0.0265,0.04482 -0.004,0 -0.0192,-0.01659 -0.0339,-0.03687 z m -24.47572,-0.531982 c 0.0193,-0.02318 0.0394,-0.04214 0.0447,-0.04214 0.005,0 -0.006,0.01896 -0.0253,0.04214 -0.0192,0.02318 -0.0394,0.04214 -0.0447,0.04214 -0.005,0 0.006,-0.01896 0.0253,-0.04214 z m 23.65429,-0.363433 -0.0368,-0.0474 0.0435,0.04014 c 0.0409,0.03772 0.0523,0.05467 0.0368,0.05467 -0.004,0 -0.0233,-0.02133 -0.0435,-0.0474 z m -0.24242,-0.242289 c -0.0241,-0.03342 -0.0234,-0.03416 0.007,-0.008 0.0322,0.02752 0.0425,0.04483 0.0265,0.04483 -0.004,0 -0.0192,-0.01659 -0.0339,-0.03687 z m -12.18706,-0.546375 c 0.014,-0.0061 0.0306,-0.0053 0.0371,0.0017 0.006,0.007 -0.005,0.01198 -0.0254,0.01107 -0.0225,-10e-4 -0.0271,-0.006 -0.0117,-0.01273 z m 0.32762,-0.02063 c 0.0133,-0.0058 0.0351,-0.0058 0.0484,0 0.0133,0.0058 0.002,0.01063 -0.0242,0.01063 -0.0266,0 -0.0375,-0.0048 -0.0242,-0.01063 z m 1.27783,-4.39e-4 c 0.014,-0.0061 0.0306,-0.0053 0.0371,0.0017 0.006,0.007 -0.005,0.01198 -0.0254,0.01107 -0.0225,-0.001 -0.0271,-0.006 -0.0117,-0.01273 z m -1.91493,-3.960897 c 0.014,-0.0061 0.0306,-0.0053 0.0371,0.0017 0.006,0.007 -0.005,0.01198 -0.0254,0.01107 -0.0225,-10e-4 -0.0271,-0.006 -0.0117,-0.01273 z m 0.7725,-0.0417 c 0.0133,-0.0058 0.0351,-0.0058 0.0484,0 0.0133,0.0058 0.002,0.01063 -0.0242,0.01063 -0.0266,0 -0.0375,-0.0048 -0.0242,-0.01063 z m 0.97717,-6.47e-4 c 0.0188,-0.0053 0.0449,-0.005 0.058,7.8e-4 0.0131,0.0058 -0.002,0.01014 -0.0342,0.0097 -0.0319,-4.3e-4 -0.0426,-0.0052 -0.0238,-0.01049 z"
           id="path2" /><path
           style="fill:#000000"
           d="m 193.4593,-40.042438 c -2.52397,-0.129452 -4.92357,-1.04563 -6.88306,-2.62799 -0.84736,-0.684274 -1.67277,-1.562202 -2.30837,-2.455255 -2.00605,-2.818576 -2.82933,-6.509058 -2.22595,-9.978145 0.57954,-3.332022 2.49344,-6.171291 5.16293,-7.659205 1.71928,-0.958288 3.69037,-1.322582 5.58037,-1.031354 2.33243,0.359403 4.33369,1.713259 5.58811,3.78037 1.23923,2.042084 1.5404,4.713198 0.78149,6.931082 -0.70072,2.047821 -2.32897,3.564394 -4.19355,3.905919 -0.44127,0.08083 -1.07812,0.104055 -1.48939,0.05432 -1.51107,-0.182717 -2.71372,-1.051544 -3.28112,-2.370368 -0.0929,-0.215867 -0.23121,-0.66722 -0.28065,-0.915681 -0.0537,-0.269738 -0.0493,-0.731766 0.009,-0.967747 0.17984,-0.7259 0.69372,-1.281318 1.34992,-1.459023 0.23646,-0.06403 0.64462,-0.06423 0.86121,-4.04e-4 0.66973,0.197351 1.16514,0.733418 1.3377,1.447485 0.0523,0.216397 0.06,0.223982 0.27925,0.274588 0.25781,0.05951 0.56725,0.03315 0.84962,-0.07238 0.39481,-0.147545 0.81275,-0.577201 1.03695,-1.066026 0.0744,-0.162137 0.16412,-0.454708 0.20877,-0.680537 0.0582,-0.294507 0.0722,-0.895505 0.0287,-1.23447 -0.12201,-0.950801 -0.50238,-1.748365 -1.15794,-2.427953 -0.65236,-0.676272 -1.4693,-1.090346 -2.47092,-1.252402 -0.38596,-0.06245 -1.03354,-0.06736 -1.42062,-0.01079 -1.11037,0.162303 -2.09784,0.614032 -2.93042,1.340554 -0.26533,0.231531 -0.72113,0.729134 -0.93526,1.02103 -0.83436,1.137388 -1.31202,2.502505 -1.42647,4.076774 -0.0274,0.377493 -0.0118,1.148165 0.0311,1.538007 0.21315,1.933641 0.96008,3.65846 2.1734,5.018837 1.11456,1.249641 2.44928,2.088165 4.01608,2.523052 0.58125,0.161333 1.07646,0.248441 1.68884,0.297066 0.40197,0.03192 1.28535,0.01504 1.68646,-0.03222 3.13076,-0.36888 5.85857,-2.231954 7.52981,-5.142812 1.78013,-3.10049 2.14704,-7.105151 0.98775,-10.78079 -0.75474,-2.39297 -2.07702,-4.433375 -3.91399,-6.039663 -2.06083,-1.802023 -4.62152,-2.850534 -7.41793,-3.037367 -0.46613,-0.03114 -1.62577,-0.01271 -2.05033,0.03259 -1.23933,0.132241 -2.21054,0.353608 -3.32694,0.758309 -1.60926,0.583364 -3.06468,1.4446 -4.38112,2.592507 -0.42477,0.370387 -0.63706,0.576743 -1.06079,1.031153 -0.57638,0.618097 -0.95472,1.088859 -1.4344,1.784778 -1.9174,2.781778 -2.98619,6.182877 -3.06936,9.767311 -0.0117,0.50252 -0.0104,0.531982 0.0223,0.531982 0.0191,0 0.43175,-0.0778 0.91704,-0.172887 0.79755,-0.15627 0.90558,-0.172869 1.12413,-0.172713 0.27533,1.96e-4 0.42827,0.03464 0.65456,0.147436 0.6163,0.307183 0.99414,1.032397 0.91364,1.75358 -0.0296,0.26535 -2.67579,9.945233 -2.78571,10.190328 -0.24399,0.544055 -0.82942,0.858952 -1.37359,0.73885 -0.26672,-0.05887 -0.46491,-0.172112 -0.65355,-0.373432 -0.0558,-0.05955 -1.10466,-1.583254 -2.33079,-3.386 -1.22614,-1.802746 -2.48801,-3.657228 -2.80415,-4.121069 -0.6043,-0.886604 -0.69809,-1.05062 -0.77146,-1.348995 -0.0546,-0.221887 -0.0587,-0.608179 -0.009,-0.818224 0.14802,-0.623232 0.55914,-1.097718 1.09687,-1.265926 0.0569,-0.01781 0.57789,-0.122918 1.15768,-0.233579 0.5798,-0.110661 1.08247,-0.20672 1.11704,-0.213464 l 0.0629,-0.01226 v -0.80646 c 0,-1.075134 0.0371,-1.759328 0.14687,-2.707307 0.43679,-3.772759 1.80009,-7.3463 3.92042,-10.276383 0.95477,-1.319388 2.08554,-2.525798 3.29261,-3.512832 2.28411,-1.867755 4.97256,-3.124595 7.79553,-3.644375 1.62097,-0.298462 3.18074,-0.356608 4.81001,-0.179311 2.99176,0.325564 5.87293,1.520631 8.21687,3.408242 2.65107,2.134941 4.57386,4.9933 5.62064,8.355447 0.41423,1.330453 0.66462,2.634752 0.79527,4.142655 0.0486,0.561464 0.0485,2.264837 -2.6e-4,2.823193 -0.16302,1.867119 -0.51181,3.410956 -1.13048,5.003792 -0.9669,2.48939 -2.56066,4.705149 -4.5308,6.299045 -2.51211,2.032361 -5.66838,3.078316 -8.80384,2.917501 z"
           id="path1" /></g></g></g></g></svg>
