<?xml version="1.0" encoding="UTF-8" standalone="no"?>
<svg
   width="200"
   height="200"
   viewBox="0 0 52.916665 52.916667"
   version="1.1"
   id="svg3625"
   inkscape:version="1.3.2 (1:1.3.2+202311252150+091e20ef0f)"
   sodipodi:docname="search.svg"
   xml:space="preserve"
   inkscape:export-filename="Paste.png"
   inkscape:export-xdpi="960"
   inkscape:export-ydpi="960"
   xmlns:inkscape="http://www.inkscape.org/namespaces/inkscape"
   xmlns:sodipodi="http://sodipodi.sourceforge.net/DTD/sodipodi-0.dtd"
   xmlns="http://www.w3.org/2000/svg"
   xmlns:svg="http://www.w3.org/2000/svg"
   xmlns:rdf="http://www.w3.org/1999/02/22-rdf-syntax-ns#"
   xmlns:cc="http://creativecommons.org/ns#"
   xmlns:dc="http://purl.org/dc/elements/1.1/"><title
   id="title1">search</title><defs
   id="defs3620" /><sodipodi:namedview
   id="base"
   pagecolor="#ffffff"
   bordercolor="#666666"
   borderopacity="1.0"
   inkscape:pageopacity="0.0"
   inkscape:pageshadow="2"
   inkscape:zoom="1.3594128"
   inkscape:cx="100.411"
   inkscape:cy="99.675389"
   inkscape:document-units="mm"
   inkscape:document-rotation="0"
   showgrid="false"
   units="px"
   inkscape:window-width="1920"
   inkscape:window-height="1008"
   inkscape:window-x="0"
   inkscape:window-y="0"
   inkscape:window-maximized="1"
   inkscape:current-layer="g70"
   showborder="true"
   borderlayer="false"
   inkscape:showpageshadow="true"
   inkscape:pagecheckerboard="0"
   inkscape:deskcolor="#d1d1d1" /><metadata
   id="metadata3623"><rdf:RDF><cc:Work
       rdf:about=""><dc:format>image/svg+xml</dc:format><dc:type
         rdf:resource="http://purl.org/dc/dcmitype/StillImage" /><dc:date>10-10-2024</dc:date><dc:creator><cc:Agent><dc:title>Rachid Tagzen</dc:title></cc:Agent></dc:creator><cc:license
         rdf:resource="http://creativecommons.org/licenses/by/4.0/" /><dc:subject><rdf:Bag><rdf:li>Search</rdf:li><rdf:li>Find</rdf:li><rdf:li>Seek</rdf:li></rdf:Bag></dc:subject><dc:title>search</dc:title></cc:Work><cc:License
       rdf:about="http://creativecommons.org/licenses/by/4.0/"><cc:permits
         rdf:resource="http://creativecommons.org/ns#Reproduction" /><cc:permits
         rdf:resource="http://creativecommons.org/ns#Distribution" /><cc:requires
         rdf:resource="http://creativecommons.org/ns#Notice" /><cc:requires
         rdf:resource="http://creativecommons.org/ns#Attribution" /><cc:permits
         rdf:resource="http://creativecommons.org/ns#DerivativeWorks" /></cc:License></rdf:RDF></metadata>   

<!-- Background rectangles representing two stacked papers --><!-- Horizontal lines representing text on the paper --><!-- Background papers --><!-- Lines representing text --><!-- Base document --><!-- Overlapping document --><!-- Lines representing text --><g
   id="g55"><g
     id="g56"
     transform="translate(-128.28283,118.25139)"><g
       id="g70"
       transform="matrix(1.3678717,0,0,1.2558183,-102.95392,-19.501088)"><path
         style="fill:#e6e9ff;stroke-width:3.60966;fill-opacity:1"
         id="path2"
         sodipodi:type="arc"
         sodipodi:cx="183.55373"
         sodipodi:cy="-63.065594"
         sodipodi:rx="11.397907"
         sodipodi:ry="12.414912"
         sodipodi:start="0"
         sodipodi:end="6.2823759"
         sodipodi:arc-type="slice"
         d="m 194.95163,-63.065594 a 11.397907,12.414912 0 0 1 -11.3956,12.414912 11.397907,12.414912 0 0 1 -11.40021,-12.409887 11.397907,12.414912 0 0 1 11.39099,-12.419935 11.397907,12.414912 0 0 1 11.40482,12.404862 l -11.3979,0.01005 z" /><path
         d="m 196.36189,-52.352366 h -1.67683 l -0.59475,-0.624153 c 2.08008,-2.635555 3.33234,-6.057147 3.33234,-9.779294 0,-8.299671 -6.17649,-15.027276 -13.79638,-15.027276 -7.61981,0 -13.79629,6.727605 -13.79629,15.027276 0,8.299687 6.17648,15.027278 13.79629,15.027278 3.41728,0 6.55857,-1.364006 8.97827,-3.629666 l 0.57281,0.647306 v 1.826394 l 10.61262,11.536334 3.16258,-3.444723 z m -12.73521,0 c -5.28499,0 -9.55125,-4.646887 -9.55125,-10.4035 0,-5.756602 4.26626,-10.403498 9.55125,-10.403498 5.28517,0 9.55134,4.646896 9.55134,10.403498 0,5.756613 -4.26617,10.4035 -9.55134,10.4035 z"
         id="path1"
         style="stroke-width:2.21518" /></g></g></g></svg>
